<svg width="50" height="50" viewBox="0 0 50 50" xmlns="http://www.w3.org/2000/svg">
<path d="M4.07982 -0.264715C3.50682 -0.273479 2.93663 -0.267365 2.38152 -0.184987L2.34299 -0.169347C2.07688 0.392984 1.3316 0.18701 0.9655 0.650622C0.485828 1.02933 0.258966 1.61314 0.105476 2.17765C-0.362354 2.47192 -0.13021 3.16497 -0.216866 3.6259C-0.296978 13.4868 -0.236954 23.3486 -0.255776 33.2098C-0.120591 33.526 0.253608 33.709 0.238037 34.1116C0.272177 34.5558 0.653751 34.8078 0.827789 35.1673C1.31729 35.3249 1.6626 35.854 2.24132 35.6978C6.36835 35.7461 10.5312 35.6627 14.636 35.801C14.899 35.7915 15.2523 35.8371 15.0812 36.1683C14.6421 36.3009 14.8222 36.8499 14.4913 37.0863C14.3089 37.4687 14.0287 37.7895 13.842 38.1502C13.5717 38.266 13.4161 38.5394 13.077 38.4638C12.25 38.5488 11.3475 38.3985 10.5371 38.6082C9.98434 39.1925 9.11249 39.7499 9.24816 40.679C9.20835 41.2167 9.2597 41.7915 9.67331 42.1761C9.90367 42.7682 10.6192 43.0328 11.194 43.179C16.2827 43.365 21.3822 43.2189 26.4687 43.4105C26.6872 43.4916 26.8836 43.5109 26.7792 43.8294C26.8638 45.1876 26.7032 46.5655 26.8875 47.913C26.9811 48.1561 27.2487 48.1956 27.2909 48.4677C27.5587 48.912 27.9548 49.2802 28.4073 49.503C28.7476 49.9695 29.4803 49.5639 29.7403 50.1391C30.4886 50.3686 31.3315 50.1716 32.1157 50.2386C36.8932 50.2166 41.6728 50.3101 46.4489 50.1946C46.7623 50.2368 46.976 50.0318 47.1598 49.8478C47.6802 49.8202 48.171 49.6406 48.5748 49.3052C49.1376 49.0053 49.4537 48.3972 49.7288 47.8482C49.8461 47.5273 49.6819 47.0665 50.0883 46.9397C50.3839 46.213 50.1821 45.3691 50.2548 44.6011C50.2067 43.2548 50.3604 41.8851 50.1534 40.5522C49.9508 40.2928 49.7881 40.0128 49.7934 39.6597C49.638 39.1786 49.9215 38.482 49.4371 38.171C49.3154 37.8899 49.2999 37.4525 48.9901 37.2637C48.8472 36.7278 48.4044 36.3701 48.0692 35.9492C47.6726 35.5142 47.1878 35.1536 46.8275 34.717C46.4743 34.6069 46.2371 34.2401 45.8303 34.2186C45.6658 33.7196 45.0079 33.9276 44.7008 33.7433C44.4639 33.3415 43.9084 33.4844 43.5289 33.4082C43.3806 32.8737 44.0365 32.7529 44.2717 32.3788C44.5503 32.0802 44.763 31.7618 45.0521 31.4871C45.2128 31.2936 45.5502 31.1363 45.4836 30.7959C45.5275 30.5838 45.8858 30.5264 45.8456 30.2305C45.7495 29.826 46.2254 29.6675 46.2137 29.2746C46.2213 28.9364 46.3077 28.6456 46.5164 28.393C46.6718 27.3188 46.6229 26.2076 46.5467 25.1259C46.4226 24.7571 46.1542 24.4405 46.2156 24.0204C46.2002 23.6165 45.7471 23.4087 45.8336 22.9786C45.7884 22.6541 45.4208 22.6128 45.3741 22.2986C45.0571 22.0528 45.0042 21.752 45.0573 21.3499C45.0143 15.0503 45.086 8.74869 44.949 2.4504C45.0019 1.98786 44.6744 1.66909 44.5543 1.25315C44.2886 1.05016 44.2149 0.651425 43.8574 0.568987C43.6219 0.228004 43.1917 0.245813 42.8505 0.125529C42.6081 -0.372446 41.8947 -0.109543 41.4484 -0.20368C29.5646 -0.305192 17.6795 -0.233918 5.79529 -0.25575C5.22861 -0.232312 4.65281 -0.25595 4.07982 -0.264715ZM26.2619 1.66514C31.7837 1.68506 37.3312 1.6412 42.8375 1.7277C42.9256 2.00005 43.3156 2.0274 43.2314 2.37696C43.3003 8.18552 43.3081 13.9987 43.2301 19.8056C42.9516 19.8644 42.7312 19.7873 42.6088 19.5399C42.3525 19.3823 42.0323 19.4019 41.8173 19.1578C41.5039 19.0384 41.1835 18.9975 40.9189 18.7729C40.1871 18.5694 39.4016 18.6114 38.6892 18.3253C38.1468 18.1808 37.6464 18.4227 37.1393 18.5499C36.5523 18.6836 35.7917 18.5156 35.3666 18.9993C35.0524 19.007 34.6711 19.0697 34.5533 19.3888C34.2501 19.371 33.9134 19.4941 33.8022 19.784C33.4466 19.8194 33.3046 20.1962 32.9657 20.2982C32.7789 20.4966 32.6275 20.6699 32.402 20.8283C32.2439 21.1022 31.9022 21.2327 31.8382 21.5927C31.6201 21.7111 31.5498 21.989 31.4215 22.1421C31.0967 22.2481 31.1708 22.6236 31.057 22.8514C30.6582 23.0812 30.8298 23.6079 30.5128 23.8949C30.2808 24.4653 30.3601 25.1198 30.0549 25.6634C29.9436 26.4814 29.8824 27.3792 30.2582 28.1344C30.3485 28.7172 30.3952 29.3267 30.7207 29.8329C30.5978 30.0848 30.125 29.8827 29.9065 29.9656C28.3301 29.9909 26.7521 30.0048 25.1762 29.9486C25.2522 29.1434 24.7903 28.4445 24.7715 27.6507C24.7688 26.9993 24.3757 26.4811 24.1903 25.885C23.9401 25.5849 23.8452 25.2067 23.5701 24.9237C23.5712 24.5415 23.1341 24.4967 23.0127 24.186C22.7656 24.0538 22.6597 23.7603 22.4132 23.6351C22.2322 23.3501 21.911 23.2226 21.6827 22.9868C21.2857 22.9297 21.1263 22.4906 20.7174 22.4861C20.4056 22.1727 19.9719 22.1272 19.5593 22.0734C19.3598 21.936 19.1543 21.7765 18.9131 21.7325C18.8779 21.5148 19.2426 21.4329 19.2951 21.2117C19.5791 21.1152 19.6264 20.7941 19.9064 20.6993C20.0571 20.3288 20.3458 19.9902 20.5151 19.649C20.8595 19.5461 20.7996 19.152 20.9095 18.9085C21.4496 18.6045 21.0036 17.8582 21.4756 17.5183C21.7264 16.5744 21.5671 15.5608 21.5826 14.5907C21.6688 14.1465 21.1341 13.9579 21.2295 13.5256C21.2559 13.2209 21.1735 12.8527 20.8738 12.7375C20.8823 12.4361 20.7861 12.0804 20.4706 11.9757C20.3172 11.5823 20.0606 11.2215 19.8275 10.883C19.5737 10.7907 19.4976 10.4724 19.2484 10.3739C19.1082 10.008 18.6464 9.95279 18.3842 9.68039C18.0286 9.59625 17.8847 9.1466 17.4643 9.1883C17.2489 8.86663 16.8622 8.82377 16.5075 8.79176C15.8338 8.25022 14.8889 8.53136 14.0949 8.45206C13.4237 8.51113 12.6865 8.33667 12.0541 8.60694C11.8502 9.04125 11.2 8.65999 10.9131 9.06069C10.7274 9.34923 10.2952 9.38427 10.0391 9.635C9.65391 9.68928 9.59262 10.1039 9.27028 10.2707C8.86613 10.6119 8.56908 11.064 8.15696 11.3682C8.10316 11.7244 7.678 11.8703 7.68318 12.2599C7.32579 12.6582 7.26279 13.2113 6.99977 13.6622C6.75528 15.0774 6.74786 16.5569 6.99958 17.9714C7.27724 18.4157 7.32938 18.971 7.67822 19.3775C7.69658 19.6758 7.87628 19.9278 8.0841 20.1136C8.17289 20.4566 8.57571 20.481 8.70818 20.8144C8.92301 21.1198 9.43431 21.4276 9.47761 21.7213C9.18572 21.7246 8.93687 21.8894 8.7614 22.1022C8.37698 22.1329 7.83649 22.0614 7.66086 22.4934C7.32334 22.4364 6.99706 22.6209 6.85996 22.8998C6.16089 23.3085 5.57755 23.9265 5.04245 24.5318C4.98025 24.8752 4.53126 24.9261 4.50782 25.2857C4.13551 25.3874 4.17781 25.822 4.10785 26.0962C3.53616 26.3842 4.00011 27.1576 3.52229 27.5051C3.25453 28.2708 3.49975 29.1657 3.35807 29.9134C2.83971 30.0271 2.2483 30.029 1.75056 29.9063C1.59569 25.6789 1.69348 21.4444 1.66168 17.2142C1.67955 12.1843 1.63137 7.12185 1.7292 2.11146C2.05294 2.07579 1.99278 1.55069 2.3777 1.70729C10.3388 1.65085 18.3006 1.66881 26.2619 1.66514ZM37.4374 3.39415C36.556 3.39791 35.6733 3.42117 34.7952 3.39644C33.2459 3.39587 31.6966 3.39592 30.1474 3.39644C28.4351 3.44689 26.7038 3.30252 25.0023 3.51317C24.7642 3.65212 24.5449 3.79272 24.2819 3.87557C24.1313 4.05521 24.0184 4.19617 23.8184 4.31845C23.6943 4.57507 23.7037 4.87359 23.4777 5.08349C23.2254 6.2858 23.4004 7.54475 23.34 8.76734C23.3781 10.767 23.2563 12.7786 23.4356 14.7709C23.6537 15.0375 23.6681 15.3898 23.8781 15.666C24.1239 15.7894 24.2202 16.0931 24.4675 16.203C24.7866 16.7732 25.5921 16.4593 26.1179 16.5509C26.5277 16.45 26.894 16.7836 26.799 17.2011C26.8655 17.8463 26.6707 18.5569 26.9186 19.153C27.422 19.5166 27.8462 20.1614 28.5643 20.0085C28.94 19.9978 29.1241 19.6311 29.4966 19.6045C29.7708 19.4841 29.8591 19.2051 30.1342 19.0987C30.3418 18.8431 30.7086 18.7126 30.9786 18.5139C31.3682 18.5386 31.3509 18.0568 31.6889 18.0033C31.8752 17.6434 32.4066 17.7251 32.5485 17.3317C32.9238 17.2653 32.9973 16.8563 33.3691 16.7853C33.8974 16.389 34.6372 16.637 35.2486 16.5516C36.8847 16.4991 38.5397 16.6473 40.1648 16.449C40.3748 16.283 40.5398 16.1154 40.7944 15.9865C41.0781 15.7566 41.1833 15.4077 41.4368 15.1778C41.6392 13.4563 41.5014 11.7045 41.548 9.97183C41.5037 8.24707 41.6359 6.50525 41.4434 4.79033C41.2418 4.52881 41.0031 4.30211 40.7772 4.03216C40.5234 3.86657 40.3268 3.65978 40.0721 3.50878C39.1991 3.40614 38.3189 3.39039 37.4374 3.39415ZM35.9024 4.83992C37.0073 4.83621 38.1114 4.84742 39.212 4.92575C39.479 5.13448 39.7914 5.21373 39.9576 5.52905C40.1954 5.93274 40.0236 6.51225 40.0919 6.97501C40.1072 9.42783 40.0968 11.8807 40.0999 14.3336C39.7049 14.7494 39.3638 15.2916 38.7096 15.0999C36.7801 15.1449 34.8366 15.0076 32.9147 15.185C32.6757 15.2771 32.5881 15.5174 32.3059 15.5422C32.0684 15.6659 31.9751 15.9252 31.6811 15.9367C31.5114 16.1625 31.3426 16.3378 31.0598 16.4433C30.8303 16.7108 30.4373 16.7374 30.2732 17.0702C29.9545 17.1495 29.8075 17.4766 29.45 17.4891C29.1935 17.6136 29.1402 17.9045 28.8506 17.9913C28.7505 18.2625 28.1272 18.3345 28.2728 17.9156C28.1893 17.0114 28.3632 16.067 28.1656 15.1907C27.3381 14.9316 26.3871 15.257 25.5522 15.0118C25.3273 14.8521 25.1203 14.7103 25.1959 14.3933C25.1457 11.34 25.2077 8.28598 25.2077 5.23245C25.5713 5.22816 25.7158 4.82834 26.1015 4.9145C28.2614 4.81077 30.427 4.85991 32.5888 4.84393C33.692 4.86237 34.7976 4.84364 35.9024 4.83992ZM30.7594 6.57714C30.3128 6.57691 29.8572 6.62038 29.4285 6.5798L29.0899 6.58095C28.5055 6.62219 27.8856 6.52624 27.3233 6.70779C27.0727 6.89687 26.7496 7.08918 26.8059 7.47168C26.6928 7.94593 26.9092 8.48109 27.4813 8.30824C28.9763 8.25883 30.4895 8.40795 31.9746 8.21974C32.6117 8.07559 32.8381 6.88367 32.0366 6.83653C31.6437 6.62124 31.206 6.57736 30.7594 6.57714ZM14.5988 9.90336C15.1123 9.84234 15.4698 10.3599 15.9996 10.2745C16.4309 10.2294 16.6642 10.7004 17.0935 10.7165C17.2612 11.0879 17.7674 11.0089 17.9573 11.3657C18.2637 11.4333 18.2569 11.826 18.5722 11.8782C18.7126 12.2141 19.0544 12.3736 19.1166 12.7543C19.3668 12.984 19.4095 13.289 19.4769 13.599C19.6142 13.7956 19.8623 13.8495 19.7786 14.1522C19.7399 14.5925 19.8372 15.0304 20.0781 15.3879C20.1586 15.8415 20.1319 16.3149 19.8563 16.6872C19.6967 17.0512 19.8942 17.5547 19.6817 17.8488C19.2568 18.0113 19.5878 18.5799 19.2007 18.754C19.0072 19.0322 18.973 19.3685 18.6775 19.5677C18.6085 19.8601 18.2323 19.8685 18.1679 20.1697C17.8528 20.3207 17.6593 20.6322 17.3033 20.7411C17.0296 21.0269 16.6161 21.1091 16.2874 21.3356C15.8061 21.3517 15.3912 21.6073 14.9391 21.7219C14.3088 21.7502 13.6639 21.7772 13.044 21.6452C12.725 21.1812 11.9921 21.5365 11.6438 21.0966C11.3551 20.9635 11.0544 20.9157 10.8614 20.6423C10.5586 20.5618 10.5636 20.1455 10.207 20.135C9.86974 19.9513 9.87708 19.4758 9.50451 19.3655C9.38604 19.0706 9.06534 18.9644 9.10034 18.614C9.04096 18.3037 8.6467 18.2428 8.708 17.8873C8.57441 17.42 8.3082 16.981 8.35419 16.4862C8.34868 15.6481 8.23369 14.7645 8.65574 13.9981C8.74412 13.7236 8.67861 13.3792 9.00116 13.2683C9.23434 13.0422 9.03196 12.662 9.3647 12.5172C9.43859 12.1884 9.86543 12.19 9.89342 11.8359C10.1541 11.7064 10.2631 11.4386 10.5385 11.336C10.6916 11.0382 11.0241 10.9124 11.2862 10.71C11.7051 10.6469 11.9252 10.2073 12.3842 10.281C12.8953 10.2344 13.2859 9.83171 13.8266 9.92434C14.0839 9.91423 14.3413 9.90394 14.5988 9.90336ZM31.8495 10.0426C30.2685 10.0429 28.6876 10.0475 27.1067 10.0437C27.036 10.0726 26.9654 10.1015 26.8948 10.1303C26.7783 10.5284 26.6357 11.2403 27.0596 11.471C29.4928 11.6247 31.9446 11.5144 34.3847 11.5446C35.5103 11.5177 36.6558 11.5897 37.7691 11.5025C38.2283 11.3263 38.5977 10.68 38.0699 10.3626C37.7613 9.90033 37.0625 10.1644 36.5923 10.0678C35.0115 10.0463 33.4304 10.0423 31.8495 10.0426ZM39.2334 20.0506C39.5607 20.0419 39.8815 20.0611 40.1657 20.2095C40.4438 20.4928 40.8769 20.4014 41.1865 20.5723C41.4443 20.8437 41.8334 20.8627 42.0805 21.1552C42.537 21.2797 42.796 21.6897 43.1234 21.9746C43.3695 22.2296 43.6154 22.5626 43.8791 22.8365C44.0676 23.1232 44.1685 23.4519 44.3914 23.7204C44.3697 24.1909 44.8913 24.4575 44.7807 24.943C44.7349 25.3793 44.8527 25.7963 45.0708 26.1608C45.2015 26.6663 45.0969 27.1809 44.838 27.6148C44.7025 28.0032 44.8955 28.5037 44.6995 28.8389C44.2724 29.1044 44.5413 29.7095 44.1317 29.9986C43.587 31.0376 42.6363 31.832 41.6828 32.4965C41.3111 32.7189 40.8828 32.8016 40.5216 33.0435C40.0799 33.1071 39.5479 33.0081 39.2183 33.3742C38.6022 33.4204 37.93 33.5227 37.3341 33.3119C37.0141 32.9233 36.3988 33.2114 36.0294 33.0023C35.7866 32.6156 35.2559 32.8026 34.9806 32.457C34.6677 32.3626 34.5086 32.146 34.3018 31.9304C34.0513 31.8485 33.9159 31.552 33.6697 31.4499C33.5788 31.1585 33.2493 31.1358 33.1459 30.8518C32.866 30.7099 32.7788 30.3589 32.5735 30.1234C32.5865 29.8413 32.3912 29.6034 32.1865 29.4764C32.2783 28.9792 31.7794 28.6833 31.8388 28.1927C31.7586 27.0753 31.7462 25.8893 31.8663 24.7734C32.3991 24.5405 31.9758 23.8258 32.4354 23.5287C32.4802 23.2185 32.7392 23.1363 32.8865 22.888C33.1773 22.1827 33.8068 21.6316 34.4404 21.2284C34.7987 21.2451 34.8164 20.764 35.1629 20.8258C35.4804 20.7903 35.5541 20.3452 35.9222 20.4773C36.2238 20.5007 36.4409 20.2672 36.6293 20.0953C37.1711 20.0397 37.7189 20.0681 38.2627 20.0592C38.5725 20.096 38.9061 20.0594 39.2334 20.0506ZM14.7394 23.205C14.983 23.2677 15.5425 23.0575 15.4673 23.4854C15.4317 23.8796 15.6285 24.4226 15.2088 24.626C15.0547 25.0394 14.4521 24.7442 14.1022 24.8379C13.7519 24.8007 13.3139 24.9067 13.0037 24.7669C12.9812 24.3681 13.0539 23.8765 12.715 23.5997C12.6507 23.024 13.4346 23.3147 13.7623 23.2205C14.0879 23.2123 14.4136 23.2052 14.7394 23.205ZM17.5842 23.2096C18.0759 23.1619 18.3823 23.6462 18.8807 23.5684C19.2366 23.5278 19.8866 23.5892 19.7395 24.1028C19.1175 24.4072 19.6499 25.272 19.1778 25.7082C19.0089 26.1372 18.9808 26.6022 18.722 27.001C18.6558 27.335 18.5335 27.6186 18.2817 27.8414C18.1323 28.0881 18.299 28.4293 17.9651 28.5317C17.7131 28.7675 17.9661 29.2092 17.5673 29.3167C17.4608 29.443 17.3266 29.6363 17.3346 29.3179C17.2603 28.8514 17.3939 28.2705 16.9884 27.9372C16.8696 27.2832 17.0572 26.514 16.6016 25.9672C16.6548 25.5898 16.9623 25.2676 16.9243 24.8488C16.8904 24.4025 17.0685 24.0206 17.2726 23.6483C17.2824 23.4708 17.3609 23.1929 17.5842 23.2096ZM10.722 23.2121C11.1169 23.3055 11.2466 23.7168 11.1696 24.0843C11.1136 24.4364 11.3546 24.6849 11.4977 24.9562C11.6239 25.6875 11.699 26.5129 11.4237 27.2034C10.8365 27.7877 11.5269 28.8271 10.8597 29.3713C10.6814 29.741 10.6597 29.1518 10.5806 29.0295C10.329 28.7954 10.2634 28.4904 10.1536 28.1842C9.79899 27.895 9.91954 27.3845 9.60369 27.0602C9.46217 26.7009 9.59875 26.1854 9.17015 25.9846C9.1789 25.5349 9.09849 25.0796 8.78868 24.7389C8.74653 24.3789 8.66727 23.9447 8.81348 23.6115C9.31793 23.5391 9.8805 23.6263 10.3071 23.2846C10.4393 23.2364 10.5808 23.2069 10.722 23.2121ZM7.0797 24.7877C7.43941 24.8033 7.21656 25.4197 7.43141 25.6604C7.79895 26.1031 7.60347 26.7827 8.02803 27.2053C8.07687 27.5792 8.20619 27.9305 8.42609 28.2378C8.44783 28.5557 8.50605 28.9153 8.8129 29.0804C8.78117 29.3975 8.92565 29.7593 9.18064 29.8888C7.80211 30.0115 6.37411 29.9767 4.98218 29.921C4.69301 29.6479 4.90901 29.1171 4.93488 28.7705C5.25191 28.3128 5.22197 27.7436 5.2391 27.207C5.46516 27.0132 5.61015 26.7242 5.62 26.4151C6.03568 25.8629 6.35018 25.1567 6.96201 24.794C7.00098 24.7882 7.0404 24.7881 7.0797 24.7877ZM21.3366 24.7912C21.463 25.0121 21.7646 25.1215 21.8544 25.3771C22.169 25.4842 22.2211 25.8302 22.4905 26.0023C22.4556 26.3029 22.6296 26.5763 22.868 26.7168C22.9055 27.2665 23.3516 27.6979 23.3109 28.25C23.3287 28.7875 23.4322 29.4353 23.2334 29.9338C21.9237 30.0174 20.5809 30.0157 19.2825 29.9071C19.1702 29.6154 19.325 29.4228 19.5454 29.2755C19.6713 29.0083 19.609 28.6759 19.8618 28.4661C20.0603 28.0714 20.0977 27.6165 20.3968 27.2766C20.5187 26.9523 20.4205 26.565 20.7323 26.3291C20.962 25.9134 20.7068 25.3535 21.1308 25.0271C21.2092 24.941 21.1804 24.7589 21.3366 24.7912ZM14.5025 26.6617C14.7652 26.6801 15.2001 26.5535 15.1169 26.9488C15.1627 27.3387 15.62 27.5301 15.473 27.974C15.4851 28.4801 15.3803 29.1285 15.8354 29.4607C15.8961 29.7966 15.792 30.0452 15.4179 29.9506C14.4935 29.9826 13.5631 29.9958 12.6417 29.9168C12.6013 29.3221 12.5547 28.6398 12.9152 28.1481C13.0503 27.6994 12.9519 27.1423 13.1403 26.7483C13.5913 26.6854 14.0476 26.6684 14.5025 26.6617ZM26.8475 31.7271C28.4944 31.7254 30.1408 31.736 31.785 31.7997C31.9583 31.8579 32.0087 32.1643 32.2428 32.1976C32.3574 32.5836 32.8526 32.6507 33.0412 33.0143C33.0756 33.1597 33.4583 33.4458 33.1612 33.4259C32.7131 33.4744 32.1287 33.3636 31.8619 33.8177C31.3517 33.806 30.9753 34.2452 30.4482 34.1477C22.6721 34.2562 14.8941 34.1758 7.11727 34.2011H2.25296C1.99434 33.9464 1.61512 33.7887 1.70517 33.3546C1.67006 32.8543 1.64957 32.3499 1.6943 31.8495C6.5377 31.6905 11.4111 31.7742 16.2661 31.7345C18.1465 31.7312 20.027 31.7289 21.9074 31.728C23.5533 31.7427 25.2006 31.7288 26.8475 31.7271ZM36.084 34.914C38.5685 34.9569 41.0635 34.8523 43.5415 35.0325C43.9781 35.3794 44.6366 35.1512 45.0142 35.5789C45.3552 35.6617 45.6158 35.8513 45.8733 36.0728C46.0638 36.2119 46.1919 36.492 46.4748 36.5355C46.7817 36.729 46.7811 37.1774 47.1428 37.2805C47.2605 37.5742 47.5903 37.6843 47.5243 38.0362C47.575 38.347 47.9747 38.351 47.9216 38.6956C48.1013 39.2854 48.4926 39.803 48.34 40.4536C48.3247 42.7658 48.3091 45.078 48.2937 47.3902C47.9922 47.5916 47.9196 47.9514 47.5733 48.0856C47.2375 48.517 46.565 48.1948 46.0796 48.2958C40.4814 48.2884 34.8819 48.3666 29.2845 48.2561C29.1122 48.085 28.8754 47.9755 28.6982 47.8255C28.6681 47.5247 28.4839 47.2495 28.2864 47.0824C28.2665 44.6106 28.2178 42.1306 28.3644 39.6635C28.76 39.2699 28.5408 38.6251 28.9204 38.2057C29.0205 37.8173 29.4011 37.6007 29.5025 37.2521C29.7825 37.1159 29.8342 36.813 30.1132 36.6783C30.2151 36.417 30.5569 36.3885 30.636 36.0995C31.022 35.8913 31.3811 35.6612 31.7772 35.479C32.1362 35.1339 32.8035 35.4352 33.1181 35.009C34.0987 34.8786 35.0971 34.9343 36.084 34.914ZM17.5728 35.7163C17.6279 35.7188 17.6848 35.7276 17.7435 35.7435C19.4666 35.7508 21.1895 35.7582 22.9126 35.7655C24.7309 35.7731 26.5493 35.7808 28.3676 35.7884C28.4467 36.0608 28.3767 36.2153 28.1401 36.339C27.9618 36.7842 27.6782 37.1853 27.4639 37.6177C27.1981 37.8975 27.2129 38.4952 26.6848 38.4148C23.1245 38.5091 19.5588 38.4862 15.9981 38.4432C15.6191 38.3245 15.8524 37.8324 16.0566 37.6467C16.1571 37.4104 16.1498 37.1992 16.408 37.0926C16.587 36.8645 16.5086 36.5293 16.79 36.3594C16.8965 35.994 17.1873 35.6987 17.5728 35.7163ZM15.9712 39.9742C19.5707 40.0037 23.1747 39.9268 26.7712 40.0778C26.8064 40.5608 26.8629 41.1376 26.7004 41.5705C23.4272 41.7241 20.1443 41.631 16.8674 41.6647C14.9836 41.6346 13.0637 41.7135 11.2017 41.5797C11.0267 41.3057 10.5068 40.8647 10.8997 40.5659C11.0434 40.246 11.243 39.8896 11.6636 40.0112C13.0991 39.9765 14.5354 39.9793 15.9712 39.9742Z" />
</svg>
