<svg width="59" height="59" viewBox="0 0 59 59" fill="none" xmlns="http://www.w3.org/2000/svg">
<g clip-path="url(#clip0_57_2)">
<path d="M28.8382 0C28.0128 0.021784 27.1368 -0.013747 26.4085 0.410156C25.9004 0.423559 25.4635 0.757126 25.387 1.25781C24.5549 2.13995 25.3056 3.56957 24.5902 4.49414C24.3438 5.15922 24.6444 5.9415 24.3675 6.57227C23.7942 7.24769 22.6842 6.69995 22.098 7.4043C21.5613 7.42376 21.0798 7.65095 20.6175 7.89844C20.1577 7.88425 19.6537 8.02147 19.4124 8.40234C18.9541 8.31979 18.6447 8.69454 18.3656 8.92774C17.8764 9.1611 17.4465 9.48662 16.9691 9.7207C16.6013 10.1664 16.3146 9.39912 15.9398 9.36133C15.5544 8.91668 15.1072 8.51361 14.5316 8.31445C14.224 7.96577 13.8013 7.72094 13.4574 7.42774C13.2661 6.84444 12.528 7.10632 12.2113 6.64258C11.4842 6.20201 10.8006 6.87156 10.18 7.16016C9.99002 7.48322 9.66259 7.74042 9.38704 7.95899C9.00903 8.08457 8.95253 8.50407 8.59017 8.64649C8.47951 9.01206 7.96422 9.0428 7.95149 9.48438C7.59304 9.69548 7.43531 10.0548 7.09407 10.2832C6.81882 10.9007 6.17831 11.6557 6.71321 12.3262C7.07001 12.6171 6.97078 13.2666 7.47103 13.4609C7.53598 13.9625 8.10143 14.0456 8.27571 14.4902C8.54595 14.7927 8.38624 15.4052 8.93392 15.4863C9.05 15.9052 9.54122 15.9492 9.65071 16.3809C10.0176 16.6216 9.78543 16.9622 9.56087 17.1992C9.42096 17.6496 8.98498 17.9662 8.9222 18.4648C8.46911 18.6022 8.4578 19.1565 8.36556 19.4824C7.71471 19.7821 8.16991 20.6277 7.66048 21.0176C7.34968 21.4136 7.64941 22.0121 7.18392 22.291C6.76574 22.9485 7.24916 24.0595 6.41634 24.4434C5.63611 24.4838 4.77317 24.3593 4.10775 24.8418C3.1433 25.0516 1.96476 24.6813 1.18392 25.4238C0.448823 25.481 0.529088 26.3611 0.166342 26.793C-0.0549927 28.3906 -0.0559017 30.0431 0.166342 31.6406C0.535749 32.0554 0.429544 32.8933 1.12142 33.0039C1.52542 33.2814 1.99874 33.5332 2.53158 33.4883C3.23268 33.5244 3.97478 33.4591 4.57455 33.8711C5.21164 34.0796 5.97334 33.8773 6.53744 34.1113C6.75905 34.4114 7.08569 34.5909 6.97494 35.0332C6.95564 35.5668 6.96161 36.2299 7.4515 36.5234C7.37318 37.0462 7.73959 37.4431 7.93197 37.8711C7.88198 38.327 8.06895 38.8016 8.42025 39.0391C8.35008 39.4816 8.67616 39.8096 8.9515 40.0547C9.0481 40.6272 9.51817 40.9969 9.74642 41.4922C10.0881 41.8201 9.47698 42.1753 9.37142 42.4746C9.00599 42.6022 8.9676 43.0237 8.60579 43.1484C8.3674 43.4547 8.4921 43.9029 8.10384 44.125C7.96179 44.4653 7.61371 44.6845 7.44564 44.9941C6.86703 45.1738 7.12935 45.8973 6.68197 46.207C6.21329 46.9435 6.84946 47.6718 7.19369 48.2871C7.50711 48.4782 7.73153 48.8046 7.97103 49.043C8.08254 49.4382 8.5206 49.4927 8.66439 49.8613C9.02037 49.9971 9.10308 50.4755 9.51595 50.5312C9.74513 50.8575 10.0573 51.0586 10.307 51.3672C10.9269 51.6306 11.6756 52.2741 12.3441 51.7383C12.635 51.3815 13.2845 51.4807 13.4788 50.9805C13.9804 50.9155 14.0635 50.3501 14.5081 50.1758C14.8257 49.9142 15.4275 50.0419 15.5238 49.5059C15.9185 49.3378 16.0648 48.922 16.4613 48.75C16.7842 48.3374 17.0747 48.9246 17.4339 48.9531C17.7153 49.2756 18.1776 49.3778 18.5042 49.5762C18.6564 50.0501 19.2679 49.9303 19.5296 50.1387C19.8718 50.7233 20.6684 50.2954 21.0628 50.8066C21.4695 51.0738 22.0349 50.8492 22.3402 51.2949C22.9436 51.6792 23.8384 51.1798 24.2542 51.8613C24.6388 52.2024 24.3573 52.8902 24.4945 53.3848C24.4866 54.0297 25.0603 54.4776 24.9281 55.1504C25.0067 55.8525 24.8173 56.7549 25.4398 57.2559C25.4795 58.0363 26.4288 57.879 26.8206 58.3418C27.9288 58.6695 29.141 58.435 30.2874 58.4883C30.915 58.4767 31.639 58.5133 32.0999 58.0293C32.5916 57.9928 33.0033 57.6582 33.0824 57.1758C33.9293 56.2707 33.1487 54.8198 33.8656 53.8594C34.1342 53.229 33.8169 52.4603 34.1038 51.8672C34.7151 51.1954 35.8354 51.7302 36.4574 51.0312C36.9496 51.0024 37.4268 50.8562 37.807 50.5371C38.236 50.4999 38.8069 50.5237 38.9945 50.0332C39.4338 50.0953 39.8277 49.8383 40.0492 49.5059C40.6317 49.4138 41.0092 48.938 41.5101 48.7051C41.838 48.3634 42.1932 48.9745 42.4925 49.0801C42.6463 49.4443 43.0406 49.5233 43.2035 49.877C43.4934 50.0704 43.8732 49.9746 44.0863 50.3086C44.4948 50.4134 44.5287 50.9771 45.0042 50.9805C45.2421 51.5171 45.9269 51.4134 46.2523 51.8379C46.8805 52.1517 47.525 51.7504 48.0374 51.4316C48.4164 51.2505 48.5253 50.8384 48.9124 50.666C49.0599 50.3856 49.49 50.364 49.5492 49.998C49.9373 49.8811 49.9925 49.4506 50.3577 49.3066C50.5123 48.9676 50.8409 48.7506 51.0316 48.4473C51.4713 48.1437 51.5734 47.5806 51.9242 47.2148C52.1257 46.6568 51.7148 46.1874 51.4867 45.7344C51.5548 45.1634 50.9217 45.062 50.7542 44.6172C50.4688 44.3469 50.2287 44.0249 50.0042 43.707C49.9325 43.2279 49.521 42.9777 49.3011 42.5898C48.9609 42.4728 48.8801 42.0631 48.6136 41.8594C48.5607 41.4931 48.9646 41.2794 49.0394 40.9238C49.4569 40.6018 49.3634 39.9636 49.8538 39.7383C50.1351 39.4215 49.9117 38.9401 50.3265 38.7383C50.6501 38.2767 50.4216 37.6197 50.8851 37.2422C51.0725 36.8251 50.9033 36.3097 51.307 35.9922C51.664 35.3636 51.2444 34.2924 52.0726 33.9902C52.8806 33.8979 53.8472 34.1676 54.5003 33.5762C55.4234 33.4004 56.5464 33.7248 57.2855 33.0098C58.1068 32.9213 57.9285 31.9162 58.3538 31.4258C58.6076 30.0715 58.5093 28.6582 58.4281 27.2871C58.2545 26.7884 58.0042 26.3381 57.8792 25.8223C57.6565 25.3815 57.0946 25.4677 56.7835 25.1172C55.823 24.7343 54.6646 25.1799 53.7913 24.5586C53.1568 24.309 52.3693 24.6832 51.8285 24.2988C51.2534 23.7248 51.6891 22.7175 51.0706 22.1348C50.9803 21.6693 50.9911 21.1378 50.6038 20.8027C50.5539 20.2955 50.4737 19.6995 50.0492 19.4004C50.1175 18.9691 49.8008 18.6385 49.5257 18.4082C49.3448 17.7429 48.6038 17.1962 48.6331 16.5176C48.9355 16.2731 49.0478 15.9185 49.4007 15.7441C49.5777 15.3701 50.1401 15.2379 50.0531 14.709C50.2476 14.3137 50.5635 14.04 50.8831 13.7656C51.0152 13.3243 51.5429 13.1148 51.5453 12.584C51.9814 12.1459 52.1964 11.252 51.6097 10.8301C51.4491 10.2842 50.9784 9.97966 50.6566 9.56055C50.4167 9.39537 50.3846 8.95752 50.0159 8.90234C49.9032 8.51449 49.4704 8.46538 49.3324 8.09961C48.9606 7.97333 48.7949 7.62977 48.4749 7.43164C48.235 6.95098 47.6219 6.99302 47.3206 6.5957C46.754 6.27255 46.2215 6.7125 45.7523 6.96484C45.1813 6.8967 45.0799 7.52985 44.6351 7.69727C44.301 8.07675 43.8767 8.39738 43.3753 8.50977C43.0685 8.75884 42.8982 9.08692 42.5413 9.29102C42.2309 9.63835 41.7924 10.1001 41.3206 9.6582C40.8607 9.40849 40.5677 8.92759 39.9867 8.90234C39.849 8.44549 39.2869 8.44506 38.9671 8.3418C38.6537 7.65128 37.7744 8.20692 37.389 7.6582C36.9354 7.34703 36.3311 7.56465 35.9417 7.12305C35.311 6.80793 34.4028 7.2141 34.0159 6.44922C33.9521 5.65436 34.1096 4.77175 33.6097 4.0918C33.4299 3.12166 33.713 1.98665 33.0296 1.18164C32.9794 0.354457 31.983 0.524898 31.4906 0.152344C30.6245 -0.0319283 29.7187 0.009106 28.8382 0ZM29.3148 2.45312C30.0256 2.45923 30.7193 2.4585 31.4066 2.52344C31.5477 3.44035 31.1573 4.57607 31.8675 5.31641C32.0349 6.34618 31.5566 7.78375 32.6995 8.39649C33.3474 8.60559 33.8942 9.13331 34.6312 9.04102C35.2607 8.87279 35.5983 9.56106 36.2093 9.51758C36.7624 9.44055 37.0559 10.0764 37.6253 10.0312C38.0357 10.0944 38.2834 10.5419 38.7464 10.4941C39.2791 10.886 39.897 11.1613 40.4456 11.5195C40.771 12.285 41.7926 12.022 42.4534 11.9844C42.8729 11.8468 43.0468 11.4334 43.4144 11.2129C43.7269 10.9264 44.1842 10.7302 44.5355 10.4551C44.8934 10.3051 44.9811 9.91658 45.3656 9.81055C45.6095 9.43297 46.048 9.31209 46.4144 9.05859C47.2036 8.60732 47.6059 9.62476 48.1507 10.0254C48.6003 10.554 49.2771 10.9972 49.555 11.6094C49.5356 12.1673 49.0625 12.5466 48.8226 12.9785C48.5853 13.2583 48.4373 13.5342 48.1097 13.7109C47.9263 14.4257 47.2862 14.8772 46.9261 15.4961C46.1875 15.8273 46.4109 16.8356 46.4847 17.4844C46.6436 17.8675 47.0542 17.9861 47.1605 18.4121C47.4706 18.8393 47.6626 19.3267 47.971 19.748C47.9477 20.2868 48.5154 20.5546 48.4808 21.0996C48.5796 21.5813 49.0792 21.8673 48.9476 22.4102C48.9825 22.9202 49.5024 23.2102 49.4281 23.7578C49.4865 24.5151 49.8621 25.1746 50.1234 25.8613C50.7212 26.9593 52.1558 26.3329 53.1038 26.6172C53.8467 27.3522 55.0953 26.8172 55.9339 27.0918C56.0256 28.5214 56.0315 29.9616 55.928 31.3906C55.0023 31.5013 53.91 31.1876 53.139 31.8477C52.1272 32.0285 50.7296 31.5367 50.094 32.625C49.7842 33.375 49.4361 34.1324 49.3851 34.9688C49.2969 35.4556 48.8173 35.8045 48.928 36.3574C48.888 36.7912 48.3807 37.0565 48.4515 37.5469C48.4661 38.0034 47.8996 38.2386 47.9593 38.7305C47.5684 39.2712 47.2685 39.8667 46.9378 40.4512C46.215 40.8382 46.3797 41.8503 46.4983 42.5352C46.6619 42.8706 46.9997 43.0064 47.1624 43.3438C47.6572 43.7142 47.8764 44.3245 48.2034 44.8164C48.5632 44.9693 48.6944 45.3815 48.9651 45.627C49.1353 46.0712 49.81 46.5674 49.4554 47.0801C48.6537 47.9224 47.8563 48.8185 46.9495 49.5312C46.3776 49.5617 45.9345 49.0973 45.5335 48.8164C45.3066 48.4833 44.8936 48.4551 44.7093 48.084C44.2499 47.9153 43.9031 47.5067 43.4749 47.3066C43.1914 47.0118 42.9061 46.7751 42.6077 46.5039C41.966 46.3611 41.0911 46.2197 40.5901 46.7422C40.3274 47.0716 39.8312 47.2624 39.4554 47.4805C39.0302 47.5511 38.924 48.0377 38.4534 48.0098C38.0037 48.3313 37.4842 48.4185 36.9729 48.6094C36.6879 48.9217 36.3013 48.9276 35.9065 48.9551C35.4453 49.0991 35.1133 49.4938 34.5745 49.4277C33.8746 49.5113 33.2501 49.8366 32.6155 50.0938C31.5083 50.7693 32.1044 52.2136 31.8343 53.2344C31.1347 53.9422 31.6143 55.1224 31.3616 55.9141C29.9426 55.9987 28.4824 56.0176 27.0628 55.8984C26.9757 54.9369 27.2229 53.851 26.6058 53.0234C26.4051 52.0542 26.9421 50.6722 25.8577 50.0918C25.1362 49.82 24.4388 49.4327 23.6409 49.3906C23.031 49.3248 22.5526 48.8276 21.9183 48.8906C21.6636 48.3595 21.0182 48.5189 20.5862 48.3555C20.2295 47.9187 19.6001 48.041 19.2425 47.6035C18.7564 47.455 18.3313 47.0907 17.9319 46.832C17.5024 46.1928 16.5656 46.3781 15.9124 46.4805C15.5659 46.6876 15.4167 47.0595 15.0315 47.2441C14.6519 47.6966 14.1103 47.9056 13.6292 48.1816C13.4912 48.5505 13.0641 48.6733 12.8245 48.9473C12.3832 49.113 11.9224 49.7591 11.4085 49.457C10.5621 48.6414 9.64419 47.8319 8.93192 46.9199C8.92362 46.3423 9.38329 45.9449 9.6038 45.4902C9.88127 45.229 10.0004 44.8963 10.3558 44.7305C10.518 44.254 10.9032 43.8764 11.1448 43.457C11.4396 43.1734 11.6764 42.8882 11.9475 42.5898C12.0903 41.9482 12.2317 41.0732 11.7093 40.5723C11.375 40.3185 11.2145 39.818 10.9612 39.4648C10.8107 39.0348 10.3999 38.755 10.4065 38.2637C10.0185 37.8793 10.0512 37.3237 9.78935 36.8613C9.33009 36.4616 9.68573 35.7227 9.19364 35.3164C8.87346 34.7458 9.24978 33.9089 8.70731 33.3926C8.4715 32.8629 8.27831 32.2007 7.64286 31.998C6.87677 31.7584 6.01623 32.0313 5.26591 31.8066C4.54057 31.1121 3.36661 31.5864 2.53739 31.3535C2.45725 29.934 2.41574 28.4383 2.56473 27.0352C3.51749 26.9086 4.68116 27.3024 5.4534 26.584C6.34926 26.3981 7.47904 26.8095 8.21512 26.1445C8.51152 25.6375 8.70017 25.0778 8.97293 24.5566C9.1585 23.99 8.87689 23.2953 9.37333 22.8535C9.63151 22.4284 9.3975 21.8543 9.82254 21.5156C10.0455 21.059 10.0372 20.5408 10.4065 20.1699C10.4132 19.6227 10.8967 19.307 11.0354 18.8066C11.333 18.4578 11.429 17.981 11.8655 17.7969C12.1695 17.2003 12.1201 16.4136 11.9182 15.7871C11.4297 15.3829 11.0533 14.8304 10.635 14.3223C10.4383 14.0144 10.4223 13.5369 9.9827 13.4492C9.75201 13.0511 9.44996 12.7617 9.2366 12.3535C8.83432 11.975 8.80454 11.3032 9.33426 11.0156C10.0787 10.3193 10.7816 9.46008 11.6311 8.93554C12.1555 8.98923 12.5857 9.37923 12.9964 9.6289C13.27 9.86752 13.5541 10.0063 13.721 10.3379C14.195 10.5112 14.5942 10.8723 14.9983 11.1445C15.2343 11.4225 15.5817 11.5144 15.7366 11.8555C16.3375 12.1396 17.1128 12.108 17.7347 11.9043C17.9726 11.6164 18.1591 11.3737 18.5296 11.2246C18.8936 10.943 19.3671 10.8663 19.68 10.5371C20.259 10.4907 20.5792 9.90601 21.1917 9.99609C21.6974 10.0368 21.8564 9.42158 22.3284 9.50976C22.8912 9.53564 23.1923 8.89549 23.7737 9.04297C24.3932 9.12987 24.9145 8.78617 25.43 8.53906C26.2248 8.34821 26.6845 7.56133 26.5569 6.76953C26.5494 6.08891 26.4831 5.36944 26.9222 4.80468C27.1671 4.08262 26.9017 3.16458 27.1155 2.52343C27.8627 2.45272 28.5656 2.45825 29.3148 2.45312ZM29.014 13.293C27.7537 13.4027 26.419 13.2462 25.2132 13.666C24.7827 14.2051 23.8815 13.6504 23.4632 14.2812C23.2682 14.5655 22.7798 14.3617 22.5472 14.6562C22.0586 14.948 21.5337 15.1977 21.0394 15.4785C20.5584 15.5361 20.4429 16.0501 19.9847 16.1602C19.728 16.5381 19.11 16.4152 18.9964 16.9297C18.5991 17.1265 18.4406 17.5314 18.0492 17.7305C17.8567 18.0268 17.5257 18.2312 17.3324 18.5176C17.0507 18.7851 16.8348 19.0535 16.5511 19.3184C16.4492 19.7519 16.0661 20.0646 15.8949 20.4492C15.4458 20.6817 15.5184 21.2796 15.139 21.5977C14.9304 22.2158 14.3966 22.6983 14.3929 23.377C13.8016 23.7002 14.0388 24.439 13.8499 24.9395C13.1958 25.8367 13.5596 27.0563 13.3441 28.0898C13.2207 28.658 12.7283 29.2389 13.1566 29.8203C13.711 30.9307 13.1223 32.3443 13.7835 33.4219C14.1325 33.8799 13.7313 34.6925 14.3617 35.0352C14.4884 35.3909 14.5059 35.8699 14.8148 36.1738C14.9675 36.6235 15.2239 36.9959 15.4652 37.3867C15.7524 38.0567 16.3952 38.5121 16.596 39.2168C16.9277 39.4573 17.1892 39.7748 17.4691 40.0566C17.7177 40.3852 18.012 40.6314 18.3089 40.916C18.5839 41.0614 18.7462 41.4228 19.0218 41.5762C19.1903 42.0128 19.7373 41.9249 19.9534 42.3242C20.4572 42.5239 20.8614 42.9296 21.3558 43.1504C21.7774 43.4996 22.344 43.6271 22.8031 43.9355C23.1108 44.0542 23.4662 43.9552 23.6331 44.3105C24.0617 44.7108 24.8117 44.2582 25.0941 44.8145C26.1992 45.2852 27.5896 44.6865 28.6156 45.3887C29.234 45.6118 29.8841 45.415 30.4105 45.1191C31.3978 44.8409 32.5552 45.28 33.4398 44.6895C33.8098 44.2832 34.5461 44.7218 34.9222 44.2422C35.1327 43.8416 35.7072 44.1087 36.0003 43.7695C36.4202 43.4777 36.9381 43.3727 37.3128 43.0273C37.7945 42.7862 38.2044 42.4542 38.6663 42.1992C38.8629 41.8739 39.4002 41.9607 39.473 41.5039C39.8392 41.3261 39.9974 40.9576 40.3519 40.7695C40.5327 40.4597 40.9149 40.2988 41.055 39.959C41.3895 39.7275 41.5905 39.4155 41.9027 39.166C41.9718 38.723 42.4496 38.5378 42.5277 38.0898C42.9049 37.6576 43.1269 37.1303 43.4476 36.6719C43.6158 36.116 44.0824 35.6627 44.0784 35.0547C44.6692 34.7315 44.4304 33.9942 44.6195 33.4941C45.2736 32.5969 44.9098 31.3773 45.1253 30.3438C45.2486 29.7756 45.7411 29.1947 45.3128 28.6133C44.7704 27.5297 45.3225 26.1607 44.7191 25.0957C44.2919 24.6971 44.7578 23.899 44.2308 23.498C43.8641 23.3048 44.1044 22.763 43.7777 22.502C43.498 22.0197 43.247 21.5092 42.973 21.0234C42.9073 20.5193 42.3394 20.3789 42.2386 19.873C41.9793 19.5468 41.8543 19.1057 41.4808 18.8965C41.2459 18.567 40.9573 18.3366 40.6956 18.0293C40.4553 17.8433 40.2713 17.5223 39.9769 17.3965C39.7516 17.0616 39.4293 16.8742 39.1937 16.5547C38.7351 16.4591 38.423 16.0652 38.0101 15.8926C37.7588 15.3966 37.0836 15.4803 36.7249 15.0742C36.1604 14.8718 35.6892 14.4181 35.0726 14.373C34.7561 13.7774 33.9812 14.0222 33.5042 13.8418C32.7445 13.2039 31.6176 13.5002 30.7015 13.3418C30.14 13.3134 29.5764 13.2844 29.014 13.293ZM29.2347 15.5156C30.3081 15.5596 31.4947 15.4357 32.471 15.6289C32.8521 16.3148 33.8625 15.6534 34.1995 16.3027C34.6501 16.5535 35.2259 16.4282 35.6175 16.834C36.1213 16.953 36.3396 17.5176 36.9163 17.5156C37.1031 17.8376 37.4913 17.9611 37.6409 18.3145C38.1141 18.5363 38.5999 18.7587 38.9593 19.1797C39.4629 19.6175 39.8669 20.1473 40.1195 20.7559C40.464 20.9481 40.6063 21.3326 40.9359 21.5352C40.9372 21.9698 41.2772 22.2591 41.5042 22.5352C41.7158 23.0248 42.0539 23.45 42.0296 24.0117C42.159 24.3917 42.621 24.4973 42.4574 24.9805C42.3948 25.4172 42.6082 25.8499 42.8929 26.1016C42.9534 28.1712 42.9561 30.3521 42.887 32.4219C42.2577 32.7011 42.5814 33.5296 42.3831 33.9902C41.7861 34.2951 42.1406 35.0935 41.6741 35.5098C41.5997 36.0263 41.054 36.1814 40.9808 36.7012C40.9614 37.0675 40.4763 37.1578 40.4046 37.5117C39.8965 37.7641 39.9542 38.4453 39.4612 38.7422C38.9507 39.2939 38.4064 39.8347 37.721 40.1328C37.5149 40.4755 37.0924 40.5804 36.9065 40.9434C36.3824 41.0584 36.0719 41.5346 35.5452 41.623C35.2695 41.9957 34.848 41.9536 34.4436 42.0195C34.076 42.1198 34.0059 42.6052 33.5589 42.4414C33.1067 42.3764 32.7058 42.6295 32.3968 42.875C30.2771 42.942 28.151 42.9463 26.0315 42.875C25.7433 42.2599 24.9267 42.5475 24.4671 42.3828C24.1814 41.7354 23.3407 42.203 22.9827 41.6582C22.5721 41.5293 22.2472 41.3208 21.8968 41.0684C21.4362 41.0349 21.3511 40.4976 20.9397 40.3887C20.6908 39.8898 20.0287 39.9227 19.7268 39.4512C19.172 38.9386 18.618 38.3963 18.3206 37.7051C17.981 37.5162 17.8899 37.0947 17.5511 36.9121C17.381 36.3557 16.9075 35.9796 16.7522 35.416C16.3201 35.0061 16.6644 34.1994 16.0335 33.9492C16.0439 33.3973 15.979 32.8045 15.5901 32.3965C15.4794 30.3044 15.5335 28.1082 15.5823 26.0117C16.2114 25.7326 15.8879 24.9039 16.0862 24.4434C16.6838 24.1354 16.3289 23.3311 16.8089 22.918C16.9358 22.3745 17.5162 22.1388 17.5335 21.5352C17.8554 21.3484 17.9789 20.9602 18.3323 20.8105C18.5542 20.3374 18.7766 19.8516 19.1976 19.4922C19.6354 18.9887 20.1651 18.5845 20.7737 18.332C20.966 17.9875 21.3505 17.8452 21.553 17.5156C22.1298 17.5175 22.3481 16.953 22.8519 16.834C23.2435 16.4282 23.8193 16.5535 24.2698 16.3027C24.6121 15.6398 25.7054 16.3456 26.0296 15.5625C27.074 15.5184 28.162 15.519 29.2347 15.5156ZM29.1878 18.4707C28.62 18.5425 28.2379 18.9963 27.7894 19.3145C27.2292 19.8109 26.8468 20.4423 26.4632 21.0605C26.4717 21.551 25.9189 21.7689 25.9632 22.2852C25.8993 23.8638 25.7798 25.4717 25.9984 27.0391C26.1632 27.41 26.571 27.5429 26.5316 28.0176C26.7002 28.4426 27.12 28.6556 27.3265 29.0703C27.8394 29.5069 28.0949 30.0312 27.9535 30.7188C27.9352 31.2174 27.9852 32.1267 27.9163 32.4258C27.7593 32.0497 27.4473 31.7732 27.4339 31.3438C27.3065 31.0206 26.9328 30.9204 26.9671 30.5312C26.7858 30.1983 26.4651 30.0462 26.3363 29.6816C25.8822 29.463 25.5535 29.0255 25.0726 28.8477C24.9207 28.3735 24.3245 28.5633 24.1195 28.1562C23.6997 27.829 23.1072 28.0721 22.7503 27.623C21.5542 27.3197 20.277 27.4763 19.0511 27.5078C18.5674 27.469 18.4783 28.0815 17.9964 27.9551C17.4736 28.048 17.3551 28.6445 17.182 29.0508C17.1036 29.5981 17.541 30.0132 17.4378 30.5703C17.4163 31.018 17.7459 31.3394 17.9828 31.627C18.1623 32.1025 18.5026 32.4851 18.7874 32.8828C19.0723 33.0741 19.2875 33.3873 19.5472 33.6055C19.8394 34.0459 20.4488 33.937 20.7738 34.3398C21.3952 34.5942 21.8831 35.1576 22.6136 35.0645C22.9857 35.3092 23.3804 35.5846 23.8714 35.5215C24.7001 35.4959 25.6916 35.7083 26.3441 35.0781C26.7186 35.0034 27.0775 35.0057 27.266 35.377C27.5579 35.4959 27.6734 35.837 27.932 35.9941C28.0644 37.0989 27.747 38.3002 28.1878 39.3438C28.4854 39.6647 28.7158 40.1831 29.262 40.0703C30.1844 39.9829 30.6246 39.018 30.5081 38.1836C30.5809 37.4559 30.3796 36.6505 30.639 35.9648C30.8517 35.569 31.266 35.4302 31.4906 35.0586C31.9271 35.0672 32.4527 34.9246 32.6878 35.3809C33.3701 35.6052 34.2315 35.649 34.8753 35.2949C35.213 34.8174 35.9381 35.2016 36.3871 34.8281C36.852 34.4764 37.4243 34.3478 37.8695 33.9707C38.4273 33.9484 38.5092 33.3161 38.9652 33.1094C39.2684 32.724 39.6778 32.4711 39.9437 32.082C40.1456 31.7304 40.4982 31.41 40.5413 30.9551C41.1249 30.2664 41.0978 29.2677 41.0101 28.4121C40.8467 28.0309 40.4623 27.8399 40.1703 27.5742C39.6615 27.4029 39.0935 27.457 38.6703 27.0879C37.8789 26.8721 36.9489 26.8958 36.2757 27.3828C35.6651 27.4421 34.9978 27.5082 34.5413 27.9453C34.0735 28.0479 33.7805 28.4608 33.3089 28.5469C33.0619 28.8139 32.8119 29.0098 32.5511 29.2617C32.3516 29.495 32.0557 29.7107 31.9046 29.9844C31.4784 30.1676 31.498 30.6698 31.1351 30.9121C30.9432 31.2436 30.969 31.635 30.6468 31.8887C30.4316 32.558 30.5427 31.7823 30.514 31.4434C30.6259 30.7258 30.201 29.7954 30.9242 29.3184C31.2656 28.9077 31.5731 28.5072 31.93 28.1328C32.0931 27.8132 31.9753 27.4275 32.3578 27.2617C32.7746 26.279 32.499 25.1404 32.5765 24.0977C32.4801 23.2025 32.7739 22.0869 32.0706 21.3906C32.044 20.8164 31.5414 20.473 31.3167 19.9863C30.8056 19.3567 30.1705 18.8071 29.4437 18.4902C29.3597 18.4731 29.2734 18.4666 29.1878 18.4707ZM29.1449 21.0039C29.1695 21.0067 29.1978 21.0138 29.2308 21.0273C29.5948 20.9933 29.9031 21.4277 30.0023 21.7539C30.0682 22.2458 30.6017 22.552 30.4613 23.0723C30.4219 24.189 30.5925 25.3657 30.3597 26.4297C29.9601 26.7921 30.1196 27.4707 29.5843 27.6934C29.4354 28.112 28.9438 27.9671 28.8109 27.6172C28.3189 27.4005 28.4976 26.698 28.0687 26.3828C27.9675 25.1024 27.938 23.7402 28.0804 22.4688C28.4891 22.1536 28.3538 21.5023 28.848 21.3008C28.979 21.2021 28.9721 20.9843 29.1449 21.0039ZM37.8538 29.1895C38.157 29.4108 38.5626 29.5612 38.9378 29.5488C38.7382 30.1902 38.3172 30.713 37.9417 31.2461C37.6833 31.8888 36.83 31.8983 36.5003 32.4473C35.9293 32.6459 35.4679 33.13 34.805 32.9746C34.3664 32.9142 33.9963 33.1556 33.637 33.2871C33.3389 33.0424 32.8836 32.9802 32.5511 32.9277C32.614 32.4993 33.04 32.2272 33.0824 31.7793C33.4905 31.1751 33.988 30.5507 34.7035 30.3418C34.8952 30.0795 35.0821 29.9697 35.4066 29.9238C35.7335 29.7732 35.893 29.3933 36.3206 29.5371C36.8882 29.6081 37.3503 29.3373 37.8538 29.1895ZM20.8031 29.5312C21.2193 29.5242 21.6326 29.5282 22.0179 29.5918C22.3198 30.2522 23.1788 29.7732 23.5648 30.3164C23.9509 30.4346 24.1595 30.8032 24.514 30.9688C24.6796 31.3276 25.0301 31.4711 25.18 31.8379C25.6357 32.0362 25.313 32.7025 25.8109 32.9277C25.381 33.1096 25.116 33.5593 24.5745 33.4375C23.9025 33.6315 23.5485 32.8719 22.8831 32.9746C22.3218 33.0815 22.0274 32.4787 21.5101 32.4004C21.3331 31.9968 20.8803 31.9053 20.6468 31.5488C20.0009 31.1361 19.2766 30.383 19.5648 29.5371C19.9673 29.5569 20.3868 29.5383 20.8031 29.5312Z" fill="white"/>
</g>
<defs>
<clipPath id="clip0_57_2">
<rect width="58.5167" height="58.5203" fill="white"/>
</clipPath>
</defs>
</svg>
