<svg width="50" height="39" viewBox="0 0 50 39" fill="none" xmlns="http://www.w3.org/2000/svg">
<g clip-path="url(#clip0_57_5)">
<path d="M30.7521 0.00443805C27.0468 0.032864 23.3061 1.04912 20.2723 3.22187C16.8014 5.50229 14.2052 9.00243 12.8355 12.9069C12.7713 13.2422 12.5095 13.4076 12.1778 13.3617C10.1182 13.7056 7.83588 14.0398 6.28608 15.5741C5.82322 16.0987 5.36751 16.7183 5.51427 17.4588C5.48563 20.3198 5.45691 23.1809 5.42823 26.042C4.00913 26.22 2.61745 26.82 1.68695 27.9372C-0.58973 30.0979 -0.543284 34.1363 1.71295 36.2982C3.50515 38.1901 6.53479 38.6383 8.83609 37.4551C10.9556 38.262 13.2813 38.1858 15.4977 37.9432C17.4254 37.5627 19.4632 37.0284 20.9023 35.6058C21.2163 35.2772 21.6017 35.8205 21.9169 35.9C25.5502 37.9094 29.8826 38.4534 33.9619 37.8904C40.3319 36.9421 45.9953 32.4413 48.4727 26.5111C50.2037 22.6219 50.4129 18.1268 49.3551 14.0274C48.5949 11.509 47.4503 9.06509 45.7264 7.05741C42.1899 2.55189 36.475 -0.124219 30.7521 0.00443805ZM30.9274 0.994198C32.5384 0.998662 34.1807 1.1057 35.7062 1.64212C35.3316 3.22122 34.7408 4.73964 34.2548 6.28674C32.0395 6.25109 29.8161 6.36329 27.6054 6.22346C27.2986 6.05914 27.3849 5.53034 27.2129 5.24269C26.8686 4.0451 26.4028 2.84303 26.1444 1.64155C27.4026 1.16149 28.7892 1.06877 30.1267 1.00758C30.3935 0.999324 30.6605 0.994648 30.9274 0.994198ZM25.0806 2.00709L25.0869 2.02181C25.7196 3.72025 26.1115 5.51688 26.8795 7.16007C27.4573 7.4565 28.1805 7.25869 28.811 7.32507C29.2661 7.44422 30.2025 7.08212 30.346 7.51281V13.6963C28.6358 14.851 27.0465 16.1962 25.281 17.2603C23.976 16.9617 22.6312 16.7707 21.3583 16.3658C20.9128 15.8445 20.5375 15.2297 19.9158 14.8786C19.3661 14.615 19.6363 13.9661 19.7682 13.5341C19.932 13.0794 20.0967 12.3821 19.5107 12.1517C18.2378 11.3064 16.924 10.5094 15.6734 9.63763C15.5208 9.23344 16.0398 8.89666 16.1915 8.5517C18.4174 5.56443 21.5028 3.11062 25.0806 2.00709ZM36.844 2.01589C39.328 2.80881 41.567 4.25654 43.4616 6.03438C44.4639 7.10256 45.5175 8.18383 46.1978 9.48946C45.9817 9.89304 45.4029 10.0876 45.0335 10.3718C44.0152 11.0395 42.9972 11.7054 41.9991 12.396C41.7157 12.7536 42.0698 13.2709 42.1033 13.6657C42.2878 14.4077 42.5771 15.1296 42.6711 15.8911C40.6121 16.4177 38.5237 16.8519 36.4411 17.2607C34.7743 16.1088 33.1558 14.8498 31.4763 13.7011V7.32507C32.5931 7.31241 33.7214 7.35001 34.831 7.30633C35.5242 6.4404 35.5936 5.25857 36.0016 4.25599C36.2873 3.52148 36.3961 2.68133 36.8172 2.01799C36.8258 2.01504 36.8351 2.01536 36.844 2.01589ZM15.1096 10.4804L15.1882 10.5301C16.3537 11.3985 17.682 12.0419 18.8016 12.9671C18.7129 13.3654 18.6631 13.8433 18.4157 14.1616C16.93 13.6636 15.3602 13.3872 13.803 13.3001C13.8291 12.7365 14.1957 12.1945 14.3894 11.6602C14.6013 11.2558 14.7711 10.796 15.1096 10.4804ZM46.8293 10.4871C48.3257 13.1319 48.8928 16.2143 49.0151 19.2186C49.1081 19.7071 48.5322 19.6253 48.2433 19.5738C47.0772 19.509 45.9109 19.4464 44.7447 19.383C44.1071 17.2674 43.4826 15.1316 43.0274 12.9749C44.0487 12.0861 45.298 11.4925 46.398 10.7041C46.537 10.6244 46.6743 10.532 46.8293 10.4871ZM13.5331 14.3784C15.8318 14.4133 18.3911 14.6902 20.1119 16.392C20.7118 17.0664 20.3092 18.1211 19.5948 18.5376C17.5856 19.8846 15.0585 20.0692 12.7074 20.0038C10.8301 19.8767 8.81758 19.6093 7.27412 18.4367C6.60683 17.9763 6.35207 16.9651 6.94413 16.3432C8.49045 14.7887 10.8285 14.4713 12.9341 14.3868C13.1337 14.3804 13.3334 14.3782 13.5331 14.3784ZM30.9446 14.5597C32.5801 15.6768 34.1736 16.8718 35.7668 18.0553C35.0876 19.9318 34.5126 21.8433 33.9108 23.7455C31.9235 23.7005 29.9164 23.8401 27.9405 23.6551C27.2407 21.8274 26.7245 19.9119 26.1119 18.0451C27.6147 16.8586 29.199 15.7628 30.7605 14.6501C30.818 14.6283 30.8814 14.5467 30.9446 14.5597ZM42.985 16.9194C43.3432 18.0367 43.51 19.2411 43.9843 20.3076C45.595 20.5399 47.2317 20.592 48.858 20.6512C48.6483 23.6632 47.6372 26.6119 45.9308 29.1072C45.6082 29.597 45.2853 30.0909 44.8777 30.5159C43.6887 29.4974 42.6168 28.3184 41.3257 27.4305C40.8423 27.4042 40.4228 27.8263 39.9834 27.9926C39.3666 28.3213 38.768 28.7008 38.1194 28.9579C37.0184 27.3698 35.8733 25.7962 34.8805 24.1424C35.0298 23.2328 35.4716 22.3768 35.7047 21.4805C36.0742 20.474 36.2948 19.4054 36.6994 18.4168C37.2003 18.0688 37.8974 18.0854 38.4717 17.8861C39.9703 17.5499 41.4768 17.1695 42.985 16.9194ZM21.5305 17.5058C22.7179 17.7033 23.8937 18.031 25.0584 18.3136C25.7272 20.2257 26.3709 22.1509 26.9649 24.0858C25.9431 25.7396 24.8976 27.396 23.7089 28.9321C23.4775 29.0674 23.1736 28.6549 22.9223 28.6008C22.473 28.297 21.8937 28.0951 21.5194 27.7194C21.3616 24.9061 21.4536 22.0402 21.4544 19.2073C21.4831 18.6502 21.4337 18.0237 21.5305 17.5058ZM20.4444 19.254C20.5314 20.1921 20.5186 21.1888 20.2567 22.0914C19.4511 23.2657 17.95 23.6726 16.6261 24.0019C14.6717 24.3937 12.6178 24.3966 10.6594 24.0686C9.27463 23.7402 7.71407 23.3654 6.80399 22.1816C6.44648 21.3426 6.65946 20.382 6.62466 19.4909C6.54458 19.018 7.01042 19.5344 7.20051 19.5802C9.67236 21.1659 12.75 21.1793 15.5772 20.9624C17.2127 20.8284 18.7881 20.2674 20.1647 19.38C20.2529 19.3426 20.3557 19.2667 20.4444 19.254ZM6.63594 23.4885L6.66672 23.5063C8.43483 24.7183 10.5992 25.3708 12.7462 25.2902C14.5891 25.3161 16.4951 25.3633 18.2225 24.6108C19.0177 24.3647 19.6955 23.8605 20.44 23.5227C20.5159 24.3987 20.5062 25.3151 20.3454 26.184C19.6288 27.4612 18.0724 27.9104 16.7324 28.2484C14.9825 28.6276 13.1777 28.705 11.4075 28.458C10.6715 28.4846 10.3136 27.6739 9.7402 27.3097C8.89464 26.5514 7.76143 26.1864 6.65143 26.0489C6.64388 25.1956 6.59442 24.3414 6.63594 23.4885ZM34.0148 24.7794C34.3398 25.2498 34.6647 25.7203 34.9897 26.1907C35.6992 27.3074 36.5939 28.3372 37.1204 29.5556C36.8904 29.8961 36.3526 30.0258 36.0152 30.2807C35.4718 30.6612 34.7404 30.8427 34.3116 31.3632C34.2917 32.2714 34.6315 33.1711 34.7534 34.0717C34.9006 34.889 35.1204 35.7385 35.2654 36.5347C34.2498 36.9959 33.0527 36.9954 31.9478 37.1198C30.1803 37.1975 28.3739 37.121 26.6747 36.612C26.5253 36.3631 26.7628 35.9661 26.7495 35.6765C26.9613 34.2326 27.4234 32.8117 27.4937 31.3523C26.6774 30.6235 25.5792 30.2398 24.6898 29.5972C25.0018 28.5774 25.8275 27.7982 26.374 26.8968C26.8411 26.2137 27.2908 25.5191 27.7467 24.8285C29.836 24.8122 31.9255 24.7958 34.0148 24.7794ZM6.1337 27.1256C8.85527 26.985 11.2787 29.5597 11.0884 32.2539C11.0758 33.5924 10.4701 34.8795 9.4561 35.7511C7.76513 37.506 4.74941 37.6261 2.92105 36.0159C1.9012 35.2458 1.28097 34.0746 1.08492 32.8173C0.799846 31.5876 1.28194 30.3134 1.88751 29.2541C2.794 27.8245 4.46707 27.0489 6.1337 27.1256ZM6.03735 27.6881C5.59707 27.7043 5.47907 28.166 5.42403 28.5121C4.60389 28.8983 3.89742 29.773 4.0888 30.7336C4.1043 31.5565 4.69755 32.2563 5.46628 32.5065C5.43408 33.1783 5.53922 33.923 5.42001 34.5573C5.07116 34.2804 4.70442 33.2871 4.15265 33.8756C3.88425 34.5349 4.53047 35.2137 5.08143 35.497C5.41934 35.5769 5.50315 35.8774 5.5179 36.1772C5.68864 36.6491 6.39182 36.6316 6.53576 36.1489C6.60125 35.8814 6.61937 35.5695 6.94337 35.4813C8.08065 34.982 8.46702 33.3837 7.65304 32.4363C7.40527 32.026 6.83326 31.8757 6.60516 31.5288C6.67324 30.9223 6.47774 30.2093 6.72178 29.6483C7.06892 29.8639 7.21122 30.6724 7.74634 30.426C8.25363 30.2732 8.09533 29.6735 7.8339 29.3715C7.56516 28.8941 6.99313 28.7734 6.62963 28.4169C6.59448 28.1003 6.40793 27.6921 6.03735 27.6881ZM20.4092 27.8001C20.4525 28.7409 20.5656 29.7492 20.2444 30.6535C19.5942 31.5472 18.4862 31.9984 17.4679 32.3403C15.7912 32.8781 13.9889 32.8228 12.2483 32.8256C11.9163 32.8114 12.1392 32.271 12.0595 32.0497C12.0841 31.2171 11.9022 30.3955 11.5968 29.6242C13.6657 29.5692 15.8147 29.7906 17.7837 29.0044C18.704 28.7126 19.5995 28.2781 20.4092 27.8001ZM41.0909 28.5409C42.0036 29.1687 42.7777 30.031 43.6402 30.7447C43.8136 30.9639 44.3674 31.2291 43.9769 31.5142C42.0365 33.5842 39.5842 35.1932 36.891 36.1038C36.7036 36.1408 36.246 36.5026 36.262 36.0747C35.9697 34.6981 35.6221 33.3081 35.4313 31.9251C36.4907 30.9606 37.8706 30.4351 39.0749 29.6728C39.7575 29.3182 40.3805 28.8312 41.0909 28.5409ZM21.5561 28.9793C23.177 29.9484 24.8884 30.8267 26.4598 31.8637C26.2607 33.1261 25.8951 34.3691 25.6427 35.626C25.5385 35.8673 25.5778 36.4855 25.1718 36.2061C23.911 35.7259 22.6404 35.2117 21.4808 34.5036C21.4967 32.6706 21.3722 30.8179 21.5177 28.996C21.5267 28.9844 21.5412 28.9765 21.5561 28.9793ZM5.42192 29.7148C5.50619 30.2329 5.50677 30.8334 5.40625 31.3395C4.93085 30.9267 4.85273 30.0725 5.42192 29.7148ZM20.454 32.0201L20.4549 32.0236C20.4881 32.8968 20.5687 33.832 20.3293 34.6694C19.7164 35.5948 18.5575 35.9502 17.5918 36.4024C15.3409 37.2172 12.8564 37.3323 10.513 36.9301C10.3553 36.8665 9.77794 36.8542 10.122 36.6143C10.8804 35.8648 11.4607 34.9337 11.8234 33.9321C14.7829 33.9827 17.9291 33.7182 20.454 32.0201ZM6.71567 32.8365C7.16592 33.258 7.14993 34.1787 6.66768 34.5026C6.59763 33.9804 6.52311 33.3228 6.71567 32.8365Z" fill="white"/>
</g>
<defs>
<clipPath id="clip0_57_5">
<rect width="50" height="38.1086" fill="white"/>
</clipPath>
</defs>
</svg>
