<svg width="50" height="50" viewBox="0 0 50 50" fill="none" xmlns="http://www.w3.org/2000/svg">
<g clip-path="url(#clip0_48_15)">
<path d="M25.4078 -0.335602C25.1129 -0.337278 24.8145 -0.31503 24.5275 -0.33236C24.1107 -0.308969 23.4871 -0.406665 23.2996 0.068374C22.8087 0.143733 22.298 0.242453 21.9206 0.569435C21.385 0.689629 21.3382 1.32714 20.9383 1.60284C20.744 2.0872 20.2675 2.4412 20.0504 2.90594C19.6419 3.0762 19.8168 3.60332 19.4946 3.85751C19.1487 4.61055 19.5002 5.5645 19.0096 6.24895C18.7034 6.51679 18.1344 6.57249 18.1465 7.1002C18.1286 7.38687 17.722 7.47357 17.7708 7.81011C17.7462 8.50979 17.616 9.32636 18.123 9.89141C18.1271 10.2749 18.5463 10.3597 18.7006 10.6475C19.0968 10.9389 19.7436 10.566 19.9869 11.1072C20.2114 11.4824 19.994 12.0691 20.4698 12.3176C20.4545 12.6199 20.7205 12.8228 20.8576 13.0317C20.8804 13.4088 21.3014 13.4479 21.4291 13.7563C21.7305 13.8772 21.6597 14.3317 21.3777 14.4404C21.2205 14.7281 20.8503 14.7823 20.5988 14.9861C20.1227 15.0653 19.5438 14.9122 19.1711 15.2797C18.5777 15.3881 17.8893 15.4546 17.3323 15.3336C17.0917 14.8437 16.4461 15.148 16.0938 14.9232C16.0617 14.7179 16.28 14.5139 16.2657 14.2783C16.5365 14.1228 16.6057 13.7969 16.6462 13.5222C17.2096 13.0832 16.9137 12.2374 17.0002 11.6286C16.9525 10.861 17.165 9.966 16.6244 9.33313C16.647 8.90507 16.1815 8.68785 16.1934 8.26787C16.0632 8.01848 15.7852 7.97476 15.6708 7.71284C15.4146 7.57948 15.3357 7.22921 15.0171 7.1887C14.8607 6.76545 14.336 6.93175 14.1016 6.60123C13.7777 6.40159 13.3557 6.5003 13.0831 6.19402C12.4104 6.00363 11.6526 6.01408 10.9751 6.17857C10.7221 6.4293 10.3996 6.47428 10.0536 6.46524C9.67221 6.49601 9.5953 6.92091 9.23557 6.99224C8.74218 7.38012 8.28332 7.8615 7.9317 8.35828C7.49403 8.49072 7.69518 9.03404 7.34901 9.25683C7.12953 9.61199 7.28598 10.07 6.94713 10.3635C6.75674 11.0362 6.76719 11.7939 6.93168 12.4715C7.17571 12.7208 7.22815 13.0344 7.2216 13.3735C7.19629 13.6562 7.51585 13.7639 7.57598 13.9819C7.52771 14.2896 7.79215 14.5146 7.95078 14.6872C8.09093 15.2382 7.40292 14.8952 7.10181 15.0958C6.86089 15.2349 6.75174 15.4907 6.42432 15.4132C6.04186 15.4852 5.97889 15.9159 5.59463 15.9926C5.34539 16.2443 4.97067 16.3347 4.8109 16.6573C4.56118 16.8067 4.44543 17.0589 4.20131 17.2122C4.06592 17.4478 4.13135 17.7545 3.85951 17.9162C3.66833 18.4325 3.33224 18.893 3.25259 19.4575C2.78608 20.2134 3.04571 21.1755 2.96268 22.017C3.0035 23.1252 2.874 24.2655 3.02924 25.3528C3.49124 25.7873 4.27425 25.5258 4.87003 25.611C18.6231 25.6518 32.3767 25.6742 46.1296 25.6047C46.7108 25.6846 47.2146 25.3137 47.0381 24.6913C46.9927 23.0547 47.1353 21.3953 46.9282 19.7713C46.5671 19.3654 46.7176 18.7313 46.303 18.3381C46.2891 17.938 45.8345 17.7557 45.867 17.3467C45.7425 17.0637 45.4422 16.9759 45.2879 16.7123C45.0585 16.5754 44.9496 16.2733 44.6621 16.2023C44.3833 15.9177 44.0003 15.8516 43.8049 15.5042C43.557 15.3205 43.1881 15.5094 43.0424 15.1814C42.7682 14.9352 42.3221 15.079 42.0511 14.9686C41.8964 14.5558 42.4703 14.4768 42.4211 14.0618C42.3925 13.7681 42.8299 13.6854 42.7814 13.3546C42.7652 13.0207 42.8337 12.7183 43.0677 12.4734C43.2295 11.7848 43.2557 11.0013 43.0126 10.3292C42.6835 9.94602 42.8986 9.35129 42.4553 9.02052C42.3995 8.75221 42.3471 8.40928 42.0216 8.33883C41.6324 7.7083 41.0469 7.13359 40.4152 6.79083C40.1607 6.22949 39.4303 6.65528 39.0921 6.21157C38.4235 5.98377 37.6638 6.03864 36.9747 6.15053C36.7164 6.29195 36.5248 6.5109 36.1978 6.47631C35.8572 6.53914 35.6804 6.8943 35.3147 6.87685C35.0601 7.00451 34.9617 7.25607 34.6836 7.34072C34.5454 7.59697 34.2586 7.72642 34.128 7.98025C33.7966 8.03634 33.8098 8.40166 33.7112 8.61883C33.3022 8.8712 33.4758 9.4253 33.1255 9.72052C32.884 10.7242 33.0328 11.7875 33.0208 12.8139C32.9835 13.1321 33.1944 13.3763 33.3752 13.58C33.3559 13.877 33.5134 14.1686 33.7532 14.3254C33.6682 14.5556 34.151 14.9611 33.7547 15.0031C33.3537 15.0132 32.8212 14.9718 32.6197 15.3909C32.0171 15.3364 31.3356 15.4784 30.7772 15.2288C30.2543 14.8189 29.4802 15.2518 29.0125 14.7389C28.719 14.6945 28.6056 14.3825 28.3976 14.2285C28.2461 13.8571 28.6554 13.7668 28.7638 13.4904C29.1416 13.4129 29.0594 12.9653 29.3589 12.8093C29.5628 12.6036 29.4228 12.2569 29.7245 12.1369C30.0254 11.7441 29.7455 11.1338 30.2473 10.8468C30.6376 10.6857 31.3105 10.946 31.489 10.3953C31.892 10.2479 31.8317 9.75809 32.1239 9.50441C32.3187 8.89369 32.325 8.17613 32.1199 7.56788C31.8025 7.34453 31.9344 6.9748 31.777 6.67677C31.5658 6.36335 31.0881 6.55427 30.9193 6.15683C30.5845 5.69041 30.8022 4.99556 30.6982 4.43277C30.683 3.80823 30.6482 3.14666 30.2696 2.63033C30.0201 2.03684 29.5548 1.52773 29.0792 1.09434C28.7371 0.793049 28.3217 0.633254 27.993 0.331588C27.433 0.0826445 26.708 0.308473 26.2667 -0.195603C25.9942 -0.3084 25.7027 -0.333927 25.4078 -0.335602ZM26.2125 1.73959C26.5965 1.73261 26.9774 1.73649 27.3413 1.79758C27.7765 1.96454 27.9717 2.41339 28.3394 2.61888C28.4643 2.87269 28.7393 2.94817 28.751 3.25689C28.8913 3.51417 29.171 3.66602 29.0871 4.01258C29.068 4.40153 29.2136 4.94612 29.043 5.24892C28.5466 5.28141 28.0136 5.28847 27.536 5.19838C27.3339 4.7226 26.7106 4.92652 26.3744 4.79269C26.2343 4.41235 25.7332 4.54931 25.5127 4.39291C25.3468 3.99929 24.8411 4.23765 24.6443 3.90119C24.1721 3.64743 23.5223 3.59731 23.0398 3.83367C22.757 4.10835 22.8498 4.60122 22.4214 4.79269C22.1706 4.88325 21.8934 4.98847 21.731 5.20773C21.4731 5.18835 21.0395 5.31002 20.8851 5.14326C20.9017 4.7975 20.881 4.4337 21.2122 4.25081C21.3747 3.98389 21.2622 3.66249 21.5918 3.5161C21.7148 3.28024 21.9827 3.15014 22.1235 2.93378C22.4578 2.8178 22.4158 2.38939 22.5271 2.18019C22.8253 2.10254 22.7695 1.63839 23.1636 1.77202C23.7805 1.7417 24.4261 1.74945 25.0647 1.74627C25.4413 1.76431 25.8285 1.74657 26.2125 1.73959ZM24.019 5.57355C24.0272 5.56694 24.0356 5.56357 24.0452 5.57756C24.3151 5.75059 24.7129 5.57056 24.8753 5.90486C25.1398 6.15511 25.5686 5.95523 25.7748 6.28938C26.1791 6.51802 26.6901 6.4286 27.0431 6.75344C27.549 6.93336 28.1979 6.68793 28.6282 7.03306C28.6512 8.12226 28.7419 9.27817 28.6005 10.3324C28.1963 10.5854 28.3666 11.1462 28.227 11.4789C27.8765 11.6864 27.8921 12.1792 27.541 12.4181C27.3303 12.6974 26.9185 12.7424 26.7593 13.0551C26.3241 13.203 25.9802 13.5752 25.4742 13.4709C24.7978 13.4616 24.0191 13.6263 23.46 13.1268C23.1025 13.0987 22.9816 12.7227 22.6522 12.6208C22.2886 12.338 22.1312 11.9062 21.874 11.5569C21.4971 11.3735 21.8592 10.8047 21.5773 10.5071C21.149 10.2342 21.4185 9.6224 21.3354 9.18684C21.3637 8.43715 21.2743 7.63324 21.4207 6.92625C21.8309 6.80144 22.3045 6.81105 22.6271 6.47535C22.9116 6.45 23.2021 6.32234 23.3208 6.05135C23.593 5.92885 23.6717 5.63542 23.9939 5.58919C24.0029 5.59007 24.0109 5.58017 24.019 5.57355ZM11.9474 7.65409C12.0047 7.65567 12.0639 7.66367 12.1256 7.67984L12.1887 7.6808C12.6688 7.65983 13.0124 8.1306 13.5111 8.05902C13.6922 8.46418 14.218 8.3848 14.4459 8.75444C14.6902 8.96877 14.8681 9.31366 15.0194 9.60588C15.0522 9.98467 15.4898 10.1772 15.3828 10.5908C15.3698 11.2858 15.4444 12.031 15.3454 12.6996C14.9166 12.8502 15.1684 13.4081 14.818 13.5694C14.6853 13.8142 14.5443 13.9753 14.3356 14.1602C14.2123 14.3545 13.9837 14.5371 13.7896 14.6581C13.4663 14.7482 13.2844 15.1178 12.8965 15.0058C12.1936 14.984 11.4377 15.0875 10.7624 14.9512C10.5248 14.6007 10.0239 14.7218 9.799 14.3504C9.5044 14.1053 9.16311 13.8012 9.13238 13.3866C9.04386 13.1295 8.69259 13.089 8.8045 12.7664C8.8286 12.2131 8.27499 11.8354 8.43658 11.2601C8.48243 10.8158 8.89116 10.472 8.81042 9.98812C8.8472 9.68327 9.19203 9.5128 9.21382 9.19065C9.45571 8.88454 9.78891 8.68184 10.0218 8.39796C10.3115 8.26929 10.4946 7.96812 10.8534 8.03079C11.2408 7.95035 11.5466 7.64302 11.9474 7.65409ZM38.126 7.68079C38.6109 7.66871 38.9607 8.1259 39.4669 8.06665C39.769 8.23019 40.0628 8.41087 40.263 8.68864C40.5024 8.79828 40.6621 9.05292 40.8203 9.24711C40.8672 9.62188 41.3042 9.81547 41.2024 10.2307C41.2465 10.738 41.7277 11.1004 41.5638 11.6494C41.5513 12.0219 41.1337 12.2502 41.1978 12.6599C41.2503 12.9443 41.1594 13.1047 40.9388 13.2579C40.8014 13.5222 40.8174 13.8449 40.5273 14.0241C40.2844 14.3171 39.9829 14.6496 39.5763 14.697C39.3079 14.8583 39.1204 15.0968 38.7653 15.01C38.0688 14.9709 37.3172 15.1117 36.6501 14.9257C36.4148 14.6866 36.0568 14.6998 35.902 14.3807C35.6619 14.2713 35.5695 13.9776 35.3443 13.8593C35.2953 13.5388 34.8796 13.4845 34.9647 13.1352C34.9248 12.7881 34.481 12.7062 34.6132 12.3155C34.6481 11.6031 34.5219 10.8425 34.6861 10.1558C35.0004 9.82421 35.0047 9.33766 35.3422 9.01212C35.5026 8.59544 35.9702 8.46619 36.3348 8.28924C36.5146 7.92302 36.9758 8.09402 37.2736 7.84368C37.5046 7.62982 37.8386 7.69055 38.126 7.68079ZM30.3097 8.03804C30.4057 8.3291 30.3087 8.86273 30.2761 9.01575C30.2686 8.6944 30.2758 8.34139 30.3097 8.03804ZM19.6892 8.0573C19.6929 8.05276 19.6969 8.05649 19.7012 8.07065C19.717 8.32482 19.7031 9.22987 19.6659 8.61387C19.6504 8.52552 19.663 8.08913 19.6892 8.0573ZM25.3054 15.0426C25.5955 15.0396 25.4588 15.4296 25.156 15.3806C24.9112 15.4068 24.5137 15.4209 24.4919 15.116C24.7075 15.067 24.9338 15.066 25.1541 15.0704C25.2137 15.0516 25.2639 15.043 25.3054 15.0426ZM22.6463 15.8645C22.6764 15.8636 22.7096 15.8695 22.7457 15.8839C22.7768 15.8825 22.8078 15.8805 22.839 15.8805C23.0437 16.1161 23.2835 16.3151 23.4915 16.5572C23.7866 16.7717 23.3699 17.0845 23.1138 17.0377C22.6622 17.1934 22.9306 16.471 22.584 16.3131C22.3818 16.2086 22.4361 15.8703 22.6463 15.8645ZM27.347 15.8738C27.5092 15.9084 27.59 16.0582 27.5009 16.2433C27.1819 16.4102 27.2238 16.8154 27.0906 17.0669C26.8096 17.1078 26.2457 16.9331 26.4648 16.5824C26.7046 16.3882 26.8591 16.1541 27.0996 15.9572C27.1278 15.9433 27.1222 15.8716 27.161 15.8805C27.2298 15.8635 27.2929 15.8623 27.347 15.8738ZM14.6219 16.3247C14.8618 16.293 15.095 16.5001 15.1852 16.6335C14.5609 17.1202 14.1033 17.8161 13.7295 18.4958C13.4118 18.8192 13.5512 19.3571 13.1998 19.6582C12.9293 21.0847 13.1404 22.5775 12.9969 24.0136C11.3264 24.0743 9.60935 24.0458 7.91759 24.0542C7.32703 23.592 8.0313 22.5882 7.39249 22.144C6.67093 21.8557 5.96307 22.6761 6.07108 23.3785C6.01472 23.6068 6.22482 24.112 5.81512 24.0237C5.37912 24.0467 4.93922 24.054 4.50534 23.9995C4.49816 22.7329 4.41126 21.4371 4.62283 20.197C4.86063 19.7422 4.91095 19.2171 5.24482 18.814C5.26964 18.4856 5.7177 18.4498 5.71689 18.0823C5.87065 17.7273 6.37037 17.7404 6.45065 17.3493C6.73979 17.2437 6.84727 16.9184 7.18555 16.9526C7.48518 16.834 7.64481 16.5159 8.01486 16.6247C8.47138 16.6377 8.96298 16.6275 9.34047 16.3564C9.42898 16.3419 9.51919 16.3389 9.60864 16.3438C10.0197 16.4227 10.3945 16.6521 10.8381 16.6163C12.0657 16.6589 13.3397 16.7394 14.5191 16.3537C14.5533 16.3385 14.5876 16.3292 14.6219 16.3247ZM40.337 16.3354C40.3969 16.3265 40.4606 16.3273 40.5306 16.343C40.8645 16.3846 41.1288 16.6771 41.501 16.6161C41.9104 16.6528 42.3806 16.5063 42.6554 16.879C42.8967 17.0219 43.1922 16.9398 43.3376 17.2301C43.6405 17.3361 43.6609 17.7206 44.0014 17.7915C44.3442 17.9737 44.2886 18.4974 44.7027 18.5807C44.6977 18.9186 44.9254 19.1847 45.1229 19.391C45.106 19.7372 45.2071 20.0729 45.4185 20.3217C45.5727 21.5301 45.5305 22.7762 45.4729 23.9716C44.9753 24.0422 44.4197 24.107 43.9442 23.9974C43.9372 23.3459 44.0126 22.4742 43.2713 22.1749C42.8219 21.8737 42.2517 22.2821 42.3317 22.8055C42.232 23.1708 42.4451 23.7062 42.152 23.984C40.4389 24.1161 38.7029 24.0223 36.9909 24.005C36.8774 22.6189 37.1058 21.178 36.8366 19.7999C36.499 19.38 36.5837 18.7615 36.1931 18.3846C35.8511 17.7197 35.389 17.0743 34.7898 16.6184C35.0816 16.2458 35.5758 16.3004 35.968 16.4927C37.2354 16.7202 38.5572 16.7034 39.8313 16.5303C40.0115 16.4755 40.1573 16.3621 40.337 16.3354ZM29.2843 16.6032C29.32 16.6034 29.3606 16.6097 29.4075 16.6238C29.938 16.542 30.2906 17.0761 30.8309 16.9894C31.4129 17.0543 32.0927 16.8958 32.6094 17.1025C32.8647 17.4439 33.3666 17.3261 33.6161 17.6705C33.8795 17.7649 33.8252 18.1884 34.164 18.2164C34.2423 18.5237 34.6548 18.5407 34.6167 18.9006C34.6864 19.2223 35.087 19.3036 34.9834 19.6713C35.0283 20.0797 35.4073 20.3398 35.305 20.782C35.3298 21.8446 35.3643 22.9144 35.3052 23.9827C34.5507 24.032 33.7448 24.1125 33.0143 24.0165C33.0212 23.4732 33.0523 22.8499 32.6176 22.4612C32.4692 21.899 31.5998 21.9889 31.4098 22.4748C30.8052 22.7376 31.1198 23.5458 30.9954 24.0254C29.7196 24.065 28.449 24.0618 27.179 23.9823C27.1522 23.4745 27.2576 22.8533 26.8261 22.4826C26.698 21.8031 27.0086 20.9349 26.4353 20.4259C26.4444 19.9634 26.39 19.3858 26.4984 18.9923C26.8516 19.02 27.088 19.4704 27.4988 19.3456C27.951 19.2696 27.9559 18.7124 28.2087 18.4129C28.3258 17.9198 28.7102 17.5254 28.7933 17.0375C29.0261 16.9078 29.0344 16.6019 29.2843 16.6032ZM20.7151 16.6099C20.97 16.626 21.0693 16.9604 21.2442 17.1283C21.2445 17.5296 21.5264 17.7894 21.6835 18.1128C21.7059 18.5411 22.069 18.8217 22.2153 19.1947C22.5835 19.5488 23.0846 19.2278 23.4075 18.9939C23.7397 19.0333 23.4748 19.688 23.5701 19.9677C23.6319 20.2923 23.5412 20.5288 23.3129 20.7442C23.1114 21.3004 23.2665 21.9095 23.1752 22.4853C22.6064 22.7668 22.9725 23.5928 22.7722 23.9902C21.5134 24.0668 20.2549 24.0727 18.9903 24.026C18.9154 23.503 19.1624 22.7353 18.5759 22.4463C18.3822 21.8963 17.48 21.9893 17.3414 22.5215C16.7917 22.8284 17.1244 23.6365 16.9243 24.0258C16.1778 24.0476 15.4262 24.0528 14.6751 23.9989C14.663 22.7214 14.5973 21.439 14.7676 20.1879C14.9837 19.9519 15.0238 19.6227 15.0425 19.3212C15.4639 19.1734 15.2882 18.5884 15.6908 18.4463C15.8138 18.1443 16.2208 18.1001 16.2556 17.7388C16.5448 17.5355 16.7937 17.3604 17.1522 17.295C17.3917 17.0703 17.6645 16.9655 17.9939 17.0083C18.7221 16.974 19.559 17.1227 20.1923 16.6554C20.3244 16.6251 20.4611 16.6257 20.5957 16.6238C20.6392 16.6117 20.6787 16.6076 20.7151 16.6099ZM24.9233 17.8498C24.988 17.8461 25.0527 17.849 25.1175 17.8498C25.1655 18.1299 24.7724 18.0088 24.9233 17.8498ZM36.1559 18.434C36.1538 18.4325 36.1589 18.434 36.1784 18.4419C36.2338 18.4713 36.1623 18.4388 36.1559 18.434ZM46.6427 19.5426C46.6383 19.5391 46.6545 19.5433 46.7108 19.5634C46.8545 19.6334 46.6559 19.5532 46.6427 19.5426ZM25.0662 21.334C25.2818 21.5678 25.132 22.0701 25.186 22.3926C25.1394 22.776 25.3002 23.1281 25.51 23.4107C25.5201 23.6673 25.7145 24.1327 25.2607 24.0352C24.9744 24.0031 24.2718 24.2069 24.4575 23.6957C24.4073 23.2555 24.8972 23.0227 24.8089 22.56C24.8576 22.1674 24.7346 21.6713 24.9123 21.3355C24.9634 21.3315 25.0149 21.3313 25.0662 21.334ZM13.3465 27.1729C12.6786 27.1738 12.0105 27.1847 11.3441 27.1773C8.66505 27.2092 5.9689 27.1536 3.30047 27.2428C2.75663 27.5174 3.1005 28.3064 2.99071 28.8077C3.03661 29.6198 2.84232 30.4726 3.05137 31.257C3.36049 31.4132 3.66055 31.5231 3.88583 31.7927C4.20623 31.8659 4.32128 32.3165 4.7224 32.2539C4.98584 32.2629 5.06978 32.6731 5.38158 32.6312C5.57185 32.8515 5.93466 32.8961 6.06059 33.1397C6.03058 33.4473 6.21106 33.7324 6.4392 33.8786C6.35589 34.3527 6.8892 34.579 6.81724 35.0459C6.79077 35.3751 7.08804 35.5942 7.19928 35.8167C7.1833 36.1077 7.27386 36.4547 7.57407 36.5683C7.51469 36.9579 7.74141 37.2876 7.93437 37.5926C8.11963 38.1899 7.48322 38.6016 7.57808 39.1988C7.66911 39.6398 7.43507 39.9869 7.26356 40.3594C7.00277 41.0595 7.46134 41.7203 8.00304 42.1296C8.30222 42.3337 8.47754 42.6576 8.74538 42.8664C8.89899 43.1304 9.16927 43.2512 9.33589 43.5061C9.70913 43.7106 9.92657 44.1572 10.2985 44.3801C10.4642 44.6808 10.7678 44.8272 10.9621 45.1009C11.1647 45.2847 11.3403 45.5945 11.6939 45.5399C12.4646 45.4857 13.3792 45.7119 14.0287 45.1968C14.618 45.1543 15.2942 45.0999 15.8644 45.2069C16.1 45.7251 16.7748 45.3281 17.0673 45.7545C17.3221 45.9793 17.7406 45.773 17.9068 46.1114C18.2439 46.3503 18.702 46.2377 19.0174 46.5358C19.3464 46.671 19.701 46.6949 19.9179 47.0048C20.2537 47.1094 20.0174 47.6377 20.397 47.7729C20.5738 47.9096 20.6504 48.2082 20.8523 48.3369C20.8134 48.6615 21.0434 48.9219 21.2845 49.0748C21.4584 49.5494 21.937 49.8171 22.2177 50.2009C23.3363 50.453 24.518 50.277 25.6597 50.3329C26.3787 50.2606 27.1813 50.4679 27.8522 50.1513C28.0891 49.7309 28.6885 49.5719 28.7544 49.0243C29.0767 48.9284 29.1193 48.5414 29.2026 48.3157C29.5068 48.1939 29.4445 47.8123 29.7539 47.7139C29.9986 47.4807 29.7653 47.0528 30.1573 46.9552C30.4325 46.5287 31.0749 46.7269 31.3906 46.3227C31.7236 46.2766 32.0912 46.2117 32.2941 45.9147C32.6511 45.9481 32.9519 45.7483 33.2121 45.5474C33.5555 45.5214 34.0391 45.572 34.2068 45.1726C34.8429 45.172 35.5244 45.0915 36.1359 45.217C36.7098 45.7587 37.6141 45.4461 38.3215 45.5613C38.9902 45.4201 39.3505 44.689 39.8682 44.2716C40.7393 43.2345 41.8892 42.4472 42.6775 41.3333C42.925 40.8361 42.8043 40.2056 42.4522 39.7977C42.3944 39.2404 42.5184 38.5913 42.079 38.1591C41.9325 37.7805 42.1197 37.4313 42.341 37.1413C42.4752 36.8793 42.3147 36.5401 42.6386 36.4154C42.9113 36.1382 42.6522 35.6776 43.018 35.4728C43.2441 35.1139 43.1336 34.6379 43.4666 34.3427C43.5565 34.0624 43.5319 33.7548 43.7986 33.5612C43.9602 33.3423 43.8525 32.9445 44.2192 32.9213C44.5028 32.624 44.9509 32.6055 45.1874 32.2606C45.5146 32.3013 45.7802 32.073 45.9518 31.8572C46.296 31.7802 46.3949 31.3629 46.7869 31.3661C47.2992 30.9535 46.9195 30.1648 47.0211 29.5886C46.9529 28.8409 47.1193 28.0462 46.8897 27.3309C46.1605 27.0553 45.3155 27.2769 44.54 27.2004C41.24 27.2229 37.9352 27.0984 34.638 27.2315C34.2131 27.2196 34.1978 27.6795 33.9102 27.8661C33.5692 28.6215 33.8982 29.5365 33.6832 30.2964C33.2814 30.5425 33.4611 31.0883 33.3145 31.421C33.0566 31.5889 33.0049 31.9222 32.9693 32.182C32.5606 32.3459 32.658 32.8902 32.3177 33.1408C32.1454 33.4941 31.8429 33.7282 31.5302 33.9414C31.4336 34.218 31.0668 34.2639 31.0148 34.5784C30.7567 34.7792 30.5782 35.0273 30.2872 35.1741C30.1118 35.4268 29.6411 35.3901 29.5053 35.7343C29.0944 35.7608 28.8838 36.2379 28.4357 36.1207C28.0713 36.0905 28.0203 36.6001 27.6611 36.4837C27.2601 36.4356 26.8769 36.5914 26.5812 36.8255C25.513 36.8616 24.3853 36.9145 23.3293 36.7963C23.0254 36.3821 22.4215 36.5608 22.0438 36.4333C21.8186 35.9341 21.1704 36.2917 20.886 35.8756C20.6002 35.7909 20.4198 35.6653 20.2175 35.4569C19.9409 35.3504 19.7265 35.2654 19.5389 35.0329C19.288 34.9557 19.1429 34.6629 18.952 34.5138C18.8583 34.2117 18.5257 34.1691 18.4128 33.8841C18.1348 33.8046 18.1147 33.4418 17.8165 33.3781C17.6002 33.0373 17.3638 32.721 17.2466 32.3378C16.9987 32.2265 16.9946 32.0378 16.9569 31.7943C16.8531 31.4975 16.4869 31.3769 16.621 31.0029C16.6636 30.6692 16.4153 30.4159 16.2661 30.1824C16.1496 29.3975 16.444 28.5067 16.0335 27.7945C15.7736 27.6222 15.7539 27.1967 15.3469 27.2294C14.6819 27.1813 14.0143 27.1721 13.3465 27.1729ZM40.5767 28.7688C42.211 28.7668 43.8425 28.7681 45.4609 28.7866C45.5094 29.2797 45.6196 29.8938 45.3962 30.3172C45.1104 30.5162 44.801 30.6403 44.4952 30.7866C44.3489 31.1469 43.9021 30.9461 43.6949 31.2659C43.5688 31.506 43.2202 31.5458 43.0874 31.7967C42.5416 31.9517 42.4835 32.5884 42.2592 32.9955C41.9383 33.1668 41.9916 33.6036 41.893 33.8494C41.379 34.1092 41.7515 34.7873 41.3332 35.1172C41.1406 35.3665 41.308 35.7463 40.9821 35.8991C40.7269 36.2205 40.9261 36.6905 40.5807 36.9645C40.3228 37.6427 40.3684 38.4489 40.7448 39.0662C40.8341 39.6163 40.7679 40.2347 41.0936 40.7079C40.7572 41.2223 40.283 41.7525 39.7364 42.0978C39.6556 42.4109 39.2865 42.4191 39.1817 42.73C38.7927 43.1346 38.4219 43.6563 37.9572 43.9223C37.5388 43.8635 36.9822 44.0843 36.7289 43.6587C36.1309 43.4221 35.4254 43.6762 34.8547 43.3175C34.4737 43.1969 34.2435 43.6323 33.8608 43.5712C33.5093 43.6274 33.33 44.0128 32.9449 43.9559C32.5831 44.0498 32.3447 44.4071 31.9303 44.312C31.5534 44.3036 31.4882 44.7691 31.1167 44.7064C30.745 44.8083 30.5007 45.1578 30.0823 45.1535C29.6898 45.2465 29.4409 45.5767 29.0424 45.6347C28.6734 45.8135 28.7789 46.2851 28.4359 46.4612C28.2932 46.7383 28.2124 47.0226 27.9915 47.2611C27.8829 47.5769 27.4751 47.759 27.5284 48.1599C25.8706 48.247 24.1469 48.2469 22.5105 48.1879C22.5186 47.806 22.2268 47.5487 22.0255 47.3021C21.8327 47.0414 21.6954 46.7814 21.5818 46.4839C21.3336 46.3274 21.3048 46.1008 21.1832 45.8487C20.959 45.5061 20.5083 45.5731 20.2429 45.2792C19.7751 45.1317 19.3456 44.9197 18.9016 44.7185C18.5237 44.7689 18.4527 44.2945 18.066 44.3103C17.6055 44.4216 17.3843 43.9013 16.9374 43.9267C16.5549 43.9587 16.3633 43.4832 15.9531 43.5473C15.6894 43.5003 15.4774 43.1429 15.1407 43.2931C14.7055 43.5778 14.1865 43.5548 13.6816 43.5574C13.3689 43.5087 13.181 43.7906 12.9757 43.9053C12.4577 43.9122 11.8462 44.0761 11.553 43.5191C11.1084 43.1543 10.8218 42.5986 10.3672 42.2875C10.2235 42.0327 9.96379 41.9296 9.83371 41.6673C9.39847 41.4971 9.14736 41.0434 8.90636 40.7079C9.26792 40.2104 9.12353 39.5244 9.2924 38.9705C9.71939 38.3856 9.6372 37.5194 9.35668 36.8846C9.04822 36.5447 9.28881 35.9501 8.81538 35.6994C8.8614 35.3054 8.53827 35.0362 8.43677 34.6993C8.4448 34.3763 8.41017 33.9589 8.05663 33.8258C8.11723 33.4453 7.90362 33.1301 7.6641 32.8814C7.60157 32.3906 7.28255 31.9368 6.84985 31.7376C6.6729 31.4683 6.34068 31.4464 6.19487 31.157C5.94384 30.9835 5.63076 31.0905 5.48991 30.7746C5.16263 30.6355 4.82429 30.4803 4.54234 30.268C4.45563 29.7763 4.45444 29.2624 4.54254 28.7707H9.40113H14.3229C15.0015 29.4129 14.2554 30.5647 15.0003 31.1492C15.0296 31.5267 14.9501 32.0614 15.39 32.2368C15.326 32.5881 15.5699 32.881 15.7793 33.0787C15.9125 33.6591 16.4854 33.9865 16.708 34.5109C17.0531 34.7114 17.095 35.1876 17.4364 35.3862C17.7655 35.7513 18.2386 35.9773 18.5978 36.3294C18.9771 36.4925 19.1206 37.0276 19.5988 36.9687C19.8167 37.331 20.2824 37.2729 20.5481 37.5688C20.8649 37.7354 21.2422 37.6942 21.5017 37.9746C21.8962 38.204 22.443 37.9234 22.744 38.3302C23.7381 38.6055 24.8071 38.4065 25.8286 38.4673C26.4038 38.4328 27.1059 38.5726 27.5444 38.1139C28.0031 38.1073 28.4935 38.0786 28.8414 37.7429C29.2009 37.729 29.509 37.5389 29.7848 37.3382C30.0644 37.359 30.2511 37.0743 30.4333 36.9628C30.9304 37.0118 31.0325 36.4458 31.4306 36.2956C31.7795 36.0228 32.1067 35.7429 32.473 35.517C32.7776 34.9783 33.2998 34.5873 33.5857 34.043C33.9075 33.7503 34.1403 33.3337 34.2968 32.9745C34.7128 32.7919 34.4536 32.237 34.833 32.072C35.1497 31.7442 34.7728 31.1506 35.2154 30.9377C35.5777 30.2655 35.0851 29.3499 35.6771 28.7707C37.3057 28.776 38.9425 28.7708 40.5767 28.7688Z" fill="white"/>
</g>
<defs>
<clipPath id="clip0_48_15">
<rect width="50" height="50" fill="white"/>
</clipPath>
</defs>
</svg>
