<svg width="48" height="47" viewBox="0 0 48 47" fill="none" xmlns="http://www.w3.org/2000/svg">
<path d="M27.7967 0.000799449C27.0835 0.0690407 26.6669 0.805272 26.7261 1.47097C21.5483 1.68369 16.3351 1.43475 11.149 1.65406C10.7898 1.68644 10.5571 1.96892 10.199 2.01725C9.67821 2.24532 9.37858 2.72772 8.97255 3.06038C8.88685 3.64568 8.41614 4.09923 8.45763 4.72393C8.36688 5.64953 8.48703 6.69415 8.29445 7.54801C7.82732 7.61473 7.25489 7.64047 6.97464 8.07942C6.54 8.08612 6.38666 8.56545 5.96539 8.64629C5.57108 8.97273 5.34186 9.46337 4.97833 9.84001C4.62373 10.1452 4.76592 10.7006 4.34966 10.9342C3.99405 11.8041 4.2294 12.8053 4.17527 13.7262C4.0847 14.418 4.65043 14.8698 4.81905 15.4877C4.99168 15.9742 5.94991 16.2776 5.47403 16.8629C4.76631 17.1266 3.75518 16.6578 3.26694 17.3934C2.88667 17.3603 2.54783 17.5821 2.34305 17.8646C1.96726 17.9625 1.85144 18.3773 1.4853 18.4834C1.37976 18.8658 0.929454 18.9986 0.853886 19.4076C0.305397 19.8503 0.564598 20.6423 0.162741 21.1723C-0.126798 22.8854 0.0721432 24.6499 0.00688986 26.3822C0.0616046 28.2516 -0.103182 30.1458 0.139626 32.0008C0.325183 32.2198 0.52605 32.3573 0.469866 32.6913C0.522772 33.0953 0.963905 33.1757 1.11181 33.511C1.43464 33.6979 1.81148 33.7561 2.04989 34.0674C2.57428 34.282 3.16348 34.1599 3.71413 34.1956C3.75948 37.3373 3.62035 40.4876 3.79629 43.6244C3.8279 44.0153 4.28061 44.2102 4.17436 44.6392C4.19641 45.0997 4.64554 45.3018 4.82133 45.6761C5.34928 45.9826 5.83507 46.4411 6.50365 46.3473C7.36157 46.3004 8.37398 46.5578 9.08103 45.9402C9.5901 45.7153 10.0751 45.9996 10.4878 46.2645C11.4099 46.3848 12.3991 46.4552 13.3043 46.2164C13.5736 45.9245 13.998 45.9132 14.2463 45.6189C14.3972 45.3242 14.8045 45.1621 14.7999 44.7483C14.9332 44.1141 15.2877 43.5369 15.208 42.8566C15.1573 41.7357 15.3846 40.5567 15.0583 39.4709C14.7863 38.8814 13.9555 38.643 13.522 39.208C12.894 39.8694 13.2639 40.9113 13.1499 41.724C13.1046 42.5291 13.2322 43.428 13.0315 44.1815C12.7294 44.3124 12.641 44.7233 12.2351 44.5872C11.7529 44.5261 11.0945 44.8056 10.8432 44.2684C10.472 44.0295 10.7358 43.431 10.6377 43.0532C10.5596 39.1981 10.7202 35.3353 10.5306 31.4845C10.4834 31.1126 10.1317 30.9809 9.95274 30.6847C9.5913 30.407 8.97868 30.568 8.84531 31.0181C8.25022 31.3867 8.5674 32.2717 8.45442 32.8574C8.37776 36.626 8.51961 40.4006 8.36082 44.1659C8.04614 44.3576 7.9227 44.7371 7.47217 44.5904C6.99708 44.5424 6.38411 44.776 6.1281 44.2632C5.78041 43.916 6.02133 43.2614 5.92602 42.7877C5.87539 36.1742 5.91236 29.5603 5.90085 22.9466C5.7001 22.3075 4.80568 21.6705 4.22082 22.2726C3.36559 22.8627 3.83082 23.9908 3.71413 24.8564C3.67792 27.2413 3.7923 29.6837 3.61824 32.034C3.31821 32.4374 2.65782 32.5722 2.35198 32.1036C2.09219 31.6824 2.28386 31.0186 2.2062 30.5158C2.22047 27.1575 2.11625 23.7927 2.26982 20.4381C2.55962 20.1175 2.67387 19.6231 3.13329 19.4634C3.50436 18.9805 4.2685 19.2579 4.68425 18.788C5.2896 18.5489 6.08834 18.8959 6.57803 18.3619C8.24729 18.2398 9.94107 18.2067 11.6106 18.3054C12.0928 18.8064 13.1122 18.8868 13.4732 18.2411C13.9561 18.2306 14.208 17.7231 14.6921 17.7307C15.1297 17.4225 15.6265 17.2568 16.101 17.014C16.4479 16.6745 17.0184 16.7852 17.343 16.3862C17.7356 16.3266 18.0562 16.1082 18.3728 15.888C18.9223 15.8868 19.2495 15.347 19.7977 15.3614C20.2697 14.9451 20.9814 14.9612 21.4331 14.5178C21.8911 14.5009 22.4573 14.3692 22.8637 14.5956C22.9475 15.0357 22.9701 15.5529 22.8502 15.9708C22.425 15.9857 22.1901 16.3886 21.837 16.505C21.4702 16.4593 21.2543 16.781 21.0005 16.9458C20.6284 16.9059 20.226 17.0683 20.0787 17.4014C19.6907 17.3519 19.3174 17.5333 19.1079 17.8429C18.7187 17.8018 18.4241 18.0423 18.1808 18.2955C17.7634 18.3751 17.3784 18.5471 17.0615 18.8075C16.5065 18.9371 16.0772 19.3406 15.5041 19.3973C15.221 19.5136 15.0836 19.8731 14.7191 19.768C14.1529 19.779 13.8337 20.3187 13.3398 20.5015C13.0276 21.1268 13.2902 21.9541 13.1975 22.655C13.2089 25.789 13.1092 28.9437 13.1901 32.0647C13.435 32.7523 14.5015 33.1719 14.9583 32.4455C15.4412 31.5409 15.1099 30.4533 15.2819 29.477C18.7397 29.5129 22.2181 29.398 25.6644 29.5601C25.7614 32.1175 25.7787 34.6861 25.6708 37.2428C25.581 37.5363 25.3077 37.7518 25.1989 38.0433C24.9248 38.4344 24.4236 38.5773 24.2066 38.9725C23.6566 39.3832 23.1314 39.8524 22.5652 40.2115C22.3861 40.6445 21.8569 40.8476 21.5587 41.2288C21.308 41.3734 21.0577 41.5377 20.9777 41.8174C20.4235 42.2669 19.839 42.6872 19.2963 43.1427C19.1202 43.3258 18.8205 43.452 18.7198 43.6977C18.2938 43.7286 18.2405 44.2044 17.889 44.349C17.6171 44.8433 16.8418 45.0919 16.8603 45.7791C16.9048 46.2118 17.3591 46.4275 17.6748 46.6012C18.0107 46.5421 18.254 46.2776 18.5651 46.1439C18.9411 45.8204 19.289 45.4545 19.7606 45.298C19.8956 44.912 20.3674 44.8384 20.5202 44.4682C20.9006 44.3093 20.9619 43.8748 21.3475 43.7091C22.0958 43.0304 22.9294 42.4091 23.704 41.7963C23.7743 41.5361 24.1507 41.4868 24.2173 41.1972C24.518 40.9419 24.8041 40.6913 25.1291 40.4898C25.146 40.2776 25.5597 40.1567 25.6724 40.2614C25.8742 41.3002 25.5306 42.4268 25.8997 43.4253C26.1535 43.7619 26.7831 43.9445 27.0286 43.5104C27.6765 43.2429 27.3908 42.3359 27.4914 41.7924C27.5848 41.3254 27.3372 40.5354 27.6484 40.2776C27.9825 40.729 28.6042 40.9052 28.9679 41.3743C29.3019 41.5945 29.5479 41.8569 29.8454 42.1117C30.0042 42.3259 30.2657 42.5271 30.4729 42.6811C30.5967 43.0165 30.9725 43.0492 31.1 43.3841C31.7481 43.6521 32.1717 44.2851 32.7857 44.6215C33.1379 45.0567 33.6542 45.3017 33.9371 45.7654C34.2668 45.9538 34.4475 46.3818 34.9125 46.3821C35.4206 46.5765 36.1011 46.2609 35.9867 45.6514C35.9942 45.1467 35.7613 44.634 35.2491 44.5069C34.5877 43.9333 33.8732 43.4092 33.2958 42.7845C32.9886 42.6877 32.9433 42.2738 32.6212 42.1886C32.538 41.8339 32.1105 41.8644 32.0424 41.5125C31.3401 41.1312 30.6788 40.6168 30.1305 40.0263C29.7555 39.9502 29.7371 39.4921 29.3808 39.4039C29.2564 39.0407 28.8254 39.0305 28.6858 38.6855C28.2202 38.385 27.7173 37.9751 27.4708 37.511C27.4889 34.8514 27.507 32.1917 27.5252 29.5322C33.0562 29.4785 38.591 29.5696 44.1198 29.4102C44.6491 29.452 44.9721 28.9926 45.4618 28.9165C46.1087 28.5239 46.5788 27.8667 46.8434 27.1866C47.3294 26.581 47.0317 25.6791 47.132 24.9626C47.0138 24.0758 47.4356 22.88 46.6207 22.2296C45.8306 21.5835 44.8023 22.6206 44.9611 23.4817C44.9117 24.7181 44.9954 25.981 44.8986 27.1958C35.7942 27.3673 26.6859 27.2577 17.5801 27.2903C16.8324 27.2554 15.9713 27.3585 15.291 27.2415C15.2193 25.3453 15.1661 23.4262 15.3505 21.5378C15.7596 21.4212 16.0383 20.95 16.5243 21.0308C16.9535 21.0371 17.0178 20.4305 17.4828 20.5933C17.953 20.6488 17.9832 20.0266 18.4296 20.0774C18.8952 19.9969 19.1315 19.5546 19.6173 19.5268C19.9784 19.3204 20.2905 19.0936 20.7092 19.0478C21.0706 18.6503 21.6749 18.6809 22.0647 18.2976C22.5079 18.2167 23.0712 18.2706 23.3111 17.7921C23.9297 17.6679 24.2822 17.0202 24.6142 16.5434C24.7543 15.7068 24.801 14.7884 24.562 13.9695C24.3035 13.7489 24.1855 13.4674 23.9786 13.217C23.5778 13.0476 23.2766 12.6486 22.7952 12.652C22.4463 12.2292 21.8557 12.3191 21.4686 12.6094C20.9194 12.6882 20.4217 12.9381 19.9858 13.2472C19.4905 13.2402 19.2653 13.801 18.7566 13.7276C18.3735 13.7451 18.3318 14.3036 17.9032 14.1533C17.6117 14.1442 17.3919 14.3866 17.2702 14.5927C16.8687 14.5305 16.515 14.7468 16.2877 15.0378C15.6678 15.022 15.301 15.6113 14.7081 15.7008C14.5134 15.8584 14.0221 16.1537 13.8978 15.9635C14.1356 15.6603 14.3217 15.3285 14.3964 14.9442C15.0873 14.0652 14.7364 12.8602 14.8104 11.8311C14.8827 11.2793 14.5296 10.8472 14.3244 10.3881C14.2691 9.98684 13.8543 9.80784 13.7552 9.40793C13.4124 9.01125 13.1291 8.56844 12.6015 8.368C12.4182 8.02741 11.96 8.15005 11.7557 7.81555C11.4412 7.58548 10.9512 7.65379 10.6672 7.48599C10.6354 6.27256 10.5437 4.93546 10.7254 3.78997C15.6282 3.62536 20.6612 3.70571 25.6134 3.66776C32.0381 3.68044 38.4701 3.60075 44.8906 3.73848C44.9372 7.54545 44.8746 11.3734 44.9885 15.1673C45.2436 15.7922 46.1262 16.3053 46.6873 15.7157C47.4848 15.1926 47.0015 14.1294 47.1322 13.3463C47.0837 10.3093 47.234 7.262 47.0384 4.23097C46.9228 3.81815 46.6602 3.47603 46.5393 3.06587C46.1411 2.44945 45.4951 2.05887 44.8435 1.79137C43.9266 1.44508 42.8773 1.66165 41.9116 1.57647C37.5794 1.53708 33.2458 1.60233 28.9146 1.48676C28.7916 0.880319 28.5959 -0.0307812 27.7967 0.000799449ZM36.1016 7.15255C35.6731 7.1576 35.2122 7.24564 34.8212 7.18024H19.0212C18.9417 7.20994 18.8624 7.23957 18.7829 7.26927C18.2442 7.56683 17.8133 8.33476 18.392 8.82137C18.9746 9.58794 20.0562 9.10806 20.8728 9.24246C26.0964 9.24651 31.32 9.25055 36.5435 9.25459C37.1885 9.07158 37.8193 8.19043 37.1887 7.62216C36.9264 7.22546 36.5301 7.1475 36.1016 7.15255ZM9.37511 9.25917C10.1198 9.26011 10.9511 9.27319 11.563 9.77387C11.778 9.89146 11.9282 10.2085 12.1642 10.3213C12.2892 10.6657 12.7318 10.7256 12.7073 11.1511C12.8515 11.5164 13.2147 11.733 13.0899 12.1817C13.0669 12.9357 13.2466 13.7888 12.6981 14.4043C12.5809 14.7846 12.2213 15.0126 12.0234 15.3632C11.6979 15.555 11.4353 15.8744 11.1062 16.0422C10.6572 15.9769 10.3009 16.2396 9.91727 16.3736C9.17037 16.5813 8.58997 15.9695 7.85848 16.0338C7.66573 15.6717 7.16061 15.6014 6.90049 15.2623C6.21748 14.5427 5.77126 13.5777 5.90314 12.5673C5.86363 12.0924 5.91217 11.626 6.25329 11.2731C6.34295 10.9375 6.4508 10.6778 6.76158 10.5172C6.85459 10.1736 7.31001 10.1775 7.3772 9.80705C7.85704 9.40603 8.46095 9.26066 9.08195 9.26672C9.17962 9.26253 9.27735 9.26011 9.37511 9.25917ZM39.8109 10.86C39.3818 10.8648 38.9201 10.9531 38.5286 10.8877C36.1441 10.8878 33.7596 10.8874 31.375 10.8884C29.793 10.9517 28.1799 10.7708 26.6155 11.0365C26.3052 11.3136 25.746 11.3948 25.7374 11.9052C25.6482 12.3223 26.0009 12.5891 26.3315 12.6893C26.8563 13.2582 27.7743 12.9528 28.4592 13.0614C32.3865 13.0866 36.314 13.0691 40.2414 13.0744C40.9163 12.8664 41.5198 11.9289 40.898 11.3326C40.6364 10.9339 40.24 10.8552 39.8109 10.86ZM39.675 14.5689C39.2258 14.5734 38.7477 14.6587 38.3314 14.5952C34.8351 14.6247 31.3147 14.5361 27.8335 14.6391L27.7303 14.6833L27.6747 14.7071C27.2079 15.0595 26.6564 15.819 27.2675 16.3105C27.937 17.1191 29.0711 16.6515 29.9731 16.775C33.4457 16.7499 36.9393 16.835 40.3988 16.7407C41.0584 16.492 41.4724 15.5427 40.8451 15.0263C40.5442 14.6405 40.1241 14.5643 39.675 14.5689ZM46.1131 18.1983C46.0901 18.1978 46.0671 18.1988 46.044 18.2006C45.178 18.2372 45.0312 19.6195 45.9074 19.7863C46.7278 20.0312 47.2576 18.8205 46.5596 18.3592C46.4324 18.2604 46.2741 18.2015 46.1131 18.1983ZM39.867 18.3905C39.4223 18.3836 38.9377 18.4735 38.5286 18.4148H26.0555L25.807 18.5132C25.2183 18.8486 24.9238 19.7338 25.5394 20.1932C26.2115 20.9295 27.3039 20.464 28.1754 20.5949C32.2004 20.5737 36.2404 20.6464 40.256 20.5665C40.8812 20.3583 41.4841 19.5564 40.9666 18.9476C40.7165 18.5011 40.3116 18.3974 39.867 18.3905Z" fill="#0A74CC"/>
<path d="M13.9609 34.7804C13.7774 34.7817 13.595 34.8531 13.4643 34.983C13.395 35.0545 13.3059 35.1052 13.2474 35.1878C13.139 35.3188 13.0886 35.4892 13.0924 35.6579C13.0942 35.8721 13.0785 36.0904 13.1277 36.3007C13.1652 36.4588 13.2697 36.5906 13.3929 36.6923C13.536 36.868 13.7618 36.9775 13.9895 36.9694C14.1754 36.9698 14.3622 36.9804 14.5475 36.9633C14.7309 36.9349 14.8964 36.8279 15.0123 36.6854C15.1767 36.5542 15.294 36.356 15.2958 36.1421C15.2997 35.9417 15.3049 35.7406 15.292 35.5405C15.2737 35.3281 15.1355 35.1447 14.9665 35.0239C14.8311 34.8818 14.6418 34.7855 14.4427 34.7898C14.2944 34.7853 14.1459 34.7817 13.9975 34.7811C13.9853 34.7805 13.9732 34.7803 13.9609 34.7804Z" fill="#0A74CC"/>
</svg>
