<svg width="50" height="50" viewBox="0 0 50 50" xmlns="http://www.w3.org/2000/svg">
<path d="M17.9267 0.335511C12.7529 0.365268 7.57623 0.281282 2.40412 0.423773C2.01581 0.388242 1.80636 0.743703 1.44296 0.806006C1.22182 0.940501 1.10896 1.15841 0.864458 1.2446C0.693095 1.7776 0.2114 2.22834 0.286245 2.84034C0.322884 3.20042 -0.365642 3.08959 -0.180388 3.54129V38.5499C-0.0318089 38.8507 0.418249 38.9994 0.293398 39.4234C0.295695 39.7931 0.39854 40.2222 0.726986 40.399C0.833427 40.7935 1.21604 40.975 1.48587 41.2051C1.71755 41.5233 2.16983 41.4326 2.42143 41.7331C3.48898 41.959 4.6096 41.8112 5.69701 41.8281C5.95994 41.8286 6.30437 41.7924 6.38637 41.5045C6.75461 41.4277 6.64854 40.993 6.3592 40.8922C6.20446 40.3997 5.5122 40.6267 5.12567 40.5545C4.24122 40.5116 3.34152 40.6233 2.47421 40.4831C2.31491 40.2046 1.96185 40.2219 1.84851 39.9109C1.47344 39.6886 1.66996 39.1685 1.34282 38.9274C1.27727 37.9738 1.35116 37.0101 1.34783 36.0431C6.87034 35.9234 12.4072 35.9775 17.9359 35.9565C21.3086 35.9769 24.6824 35.9172 28.0522 36.0338C28.087 36.4524 28.1885 36.9864 27.9636 37.3463C27.4816 37.5491 26.5957 37.2979 26.4678 37.9956C26.3375 38.2524 26.0976 38.468 26.143 38.804C26.1039 39.3697 26.1064 39.9374 26.0891 40.504C20.8638 40.5197 15.6383 40.5354 10.413 40.5512C10.0895 40.677 9.5268 41.2703 10.0295 41.5308C10.2744 41.9973 10.9665 41.7445 11.3957 41.8344C13.419 41.8819 15.4422 41.7858 17.4598 41.9168C17.5203 42.7925 17.596 43.6848 17.4263 44.5449C16.9913 44.8751 16.3398 44.6908 15.8288 44.7874C15.2478 44.9065 14.556 44.6725 14.0403 45.0014C13.84 45.3713 13.1293 45.3842 13.2042 45.9448C12.6717 46.2195 12.8777 46.9813 12.7846 47.4757C12.8124 48.1726 12.6602 48.9597 12.986 49.597C13.1903 49.8014 13.6362 49.6279 13.6474 50.0445C14.1526 50.3471 14.8607 50.1004 15.4471 50.1804H36.1762C36.5288 50.134 36.2652 49.5684 36.7304 49.6551C37.4586 49.6081 37.069 48.7216 37.1654 48.2492C37.0971 47.5377 37.3044 46.7471 37.0168 46.079C36.681 45.9669 36.6632 45.5148 36.3267 45.3571C36.0143 45.2695 35.9437 44.8955 35.5877 44.8954C34.6121 44.6763 33.5827 44.891 32.6192 44.6645C32.3939 44.3897 32.4982 43.9425 32.4795 43.6168C33.5748 43.3237 34.7462 43.4947 35.8705 43.4361C39.4064 43.4082 42.9463 43.5063 46.4797 43.375C46.8285 43.3894 46.945 43.0526 47.176 42.8849C47.4027 42.4983 47.1678 41.8838 47.6568 41.6836C47.8599 41.3249 48.4672 41.5872 48.5493 41.0895C48.9755 40.8672 49.2811 40.4207 49.5425 40.0291C49.7672 38.3013 49.6407 36.5407 49.7034 34.8007C49.7862 27.3153 49.7746 19.8191 50.0391 12.3411C50.2855 10.3241 50.1325 8.26655 50.1803 6.23394C50.1327 5.22324 50.2763 4.17256 50.1074 3.18724C49.8579 3.10398 49.6071 2.989 49.712 2.67068C49.7975 2.20452 49.4331 1.88148 49.2431 1.52126C49.2429 1.15212 48.8241 1.16737 48.6879 0.889977C48.3862 0.753804 48.1246 0.544255 47.8151 0.445231C44.2089 0.277482 40.5931 0.374972 36.9832 0.338372C30.631 0.333462 24.2789 0.33491 17.9267 0.335511ZM29.2069 1.58692C35.3258 1.60584 41.4769 1.56415 47.576 1.64858C47.6836 2.00521 48.1626 2.05422 48.3127 2.41676C48.4684 2.73191 48.4117 3.12258 48.6322 3.41369C48.7385 5.02645 48.7155 6.65362 48.651 8.26741C48.6307 8.59622 48.1452 8.37292 47.9364 8.4611C38.8547 8.58041 29.7626 8.50417 20.6766 8.52734C14.3593 8.50032 8.03858 8.58313 1.72477 8.44751C1.29059 8.56592 1.32135 8.14104 1.32251 7.84326C1.32589 6.34935 1.22634 4.83516 1.38659 3.34817C1.6701 2.9723 1.49535 2.39506 1.94821 2.10863C2.08853 1.92356 2.42042 1.92403 2.42515 1.63713C11.3489 1.56725 20.2806 1.5942 29.2069 1.58692ZM5.30705 3.08052C4.88863 3.07616 4.50468 3.25648 4.16837 3.47491C3.83191 3.53673 3.83922 3.94599 3.58844 4.13066C3.40784 4.69397 3.41163 5.36169 3.59888 5.92252C3.84845 6.22452 3.94571 6.74885 4.42686 6.76223C4.86027 7.23638 5.6034 7.15069 6.1728 7.03474C6.35809 6.89838 6.3633 6.66287 6.62613 6.59929C6.89655 6.44917 6.99856 6.10756 7.17301 5.91594C7.65592 5.65088 7.46246 4.96309 7.44452 4.51074C7.43467 4.22345 7.01677 4.30485 7.0713 4.00234C6.74208 3.49175 6.16368 3.05958 5.52635 3.08538C5.48128 3.08563 5.43626 3.0815 5.39117 3.08395C5.36297 3.08198 5.33495 3.08081 5.30705 3.08052ZM5.47628 4.37041C6.03317 4.37639 6.47567 5.12794 5.9741 5.53814C5.71686 5.90849 4.98861 5.92057 4.79178 5.52054C4.79112 5.17342 4.69921 4.71541 4.88534 4.42091C5.021 4.38959 5.16257 4.39774 5.30062 4.39373C5.35976 4.37719 5.41867 4.36979 5.47628 4.37041ZM1.72892 9.83854C1.7835 9.8384 1.84595 9.84837 1.9176 9.87073C12.5658 9.86046 23.214 9.84374 33.8622 9.83954C38.6736 9.85176 43.5 9.8144 48.3022 9.87688C48.8674 10.3098 48.5637 11.1417 48.6712 11.7453C48.7044 18.9482 48.7228 26.1668 48.6594 33.3696C48.6223 33.7877 48.7418 34.4641 48.2635 34.6387C47.9446 34.6161 47.2558 34.8224 47.3582 34.2642C47.2576 32.9071 47.4172 31.5215 47.262 30.1806C47.0433 29.8239 46.606 29.7189 46.4335 29.3547C46.1524 29.0865 45.574 29.3626 45.405 29.1268C45.5045 28.6604 45.2003 27.9637 45.5665 27.6494C46.0042 27.3642 46.7584 27.5878 46.997 27.0394C47.45 26.7067 47.2753 26.0045 47.3565 25.5125C47.3418 24.389 47.4397 23.2376 47.2285 22.1316C47.0944 21.9163 46.8821 21.7716 46.7508 21.5634C45.5635 21.3382 44.3241 21.503 43.118 21.449C42.5722 21.5361 41.8419 21.2629 41.4189 21.6091C41.2417 22.1814 41.7134 22.8346 42.3407 22.7266C43.5697 22.7922 44.8304 22.6758 46.0354 22.8067C46.0473 23.9593 46.1827 25.1257 45.9562 26.2595C45.5768 26.6018 44.8172 26.3192 44.2858 26.4114H27.7057C27.2081 25.99 27.5367 25.2434 27.4448 24.6895C27.4529 24.0569 27.4623 23.4243 27.471 22.7917C30.7297 22.7758 33.9884 22.76 37.2471 22.7443C37.5917 22.575 38.2054 21.9228 37.738 21.5692C36.5203 21.3472 35.2534 21.5049 34.0183 21.4494C31.7079 21.4896 29.3875 21.3629 27.083 21.534C26.6422 21.6066 26.5669 22.1127 26.2489 22.3404C26.0078 23.3194 26.1876 24.3633 26.1336 25.3655C26.1369 25.9266 26.084 26.5565 26.5017 26.9895C26.612 27.6731 27.518 27.3144 27.9542 27.6088C28.2234 28.0802 28.0151 28.6618 28.0572 29.1851C27.6563 29.2109 27.0867 29.1474 26.9052 29.5952C26.5691 29.5574 26.5679 29.9159 26.4298 30.0944C25.9533 30.4456 26.2167 31.1719 26.1322 31.672C26.1205 32.6367 26.1553 33.5963 26.0612 34.5591C22.867 34.7236 19.6353 34.6151 16.4248 34.6509C11.4772 34.6516 6.52961 34.6511 1.582 34.6512C1.04249 34.2301 1.412 33.449 1.30391 32.8571C1.3281 25.4627 1.25145 18.0629 1.35341 10.6722C1.35438 10.3441 1.34685 9.83971 1.72892 9.83854ZM50.0181 12.1113C50.0197 12.1105 50.0168 12.1144 50.005 12.1274C49.9688 12.1589 50.0135 12.1139 50.0181 12.1113ZM38.8982 27.5165C40.4925 27.5131 42.086 27.5239 43.6768 27.5991C44.2412 27.6584 44.082 28.3513 44.1038 28.7299C44.0938 28.934 44.1591 29.2434 43.8495 29.1666C39.3085 29.2619 34.7572 29.2281 30.216 29.1813C29.9053 29.1185 29.279 29.3406 29.4026 28.8051C29.4535 28.4182 29.1571 27.678 29.793 27.6596C31.2218 27.4543 32.6759 27.5496 34.1151 27.5195C35.7088 27.5375 37.3039 27.5199 38.8982 27.5165ZM36.8445 30.5202C39.8878 30.5378 42.946 30.4944 45.9782 30.6C46.0824 31.8242 46.1095 33.0587 46.0111 34.2767H27.4754C27.3966 33.0796 27.4705 31.8766 27.4721 30.6704C28.449 30.4593 29.4944 30.5905 30.4939 30.5355C32.6108 30.5211 34.7277 30.5212 36.8445 30.5202ZM33.37 35.5918C36.9075 35.622 40.4714 35.5455 43.9912 35.6917C44.2141 35.888 44.0726 36.3823 44.0964 36.69C44.0902 37.0303 44.0392 37.5404 43.5511 37.3666H29.6649C29.2325 36.9271 29.417 36.2386 29.4848 35.7075C30.6124 35.5168 31.7927 35.6376 32.9398 35.5929C33.0832 35.5925 33.2266 35.5921 33.37 35.5918ZM46.2207 35.9471C46.4771 35.9482 46.7349 35.9616 46.9866 35.9494C47.5176 36.0087 48.1875 35.8332 48.6468 36.1547C48.6693 36.9895 48.8008 37.849 48.5856 38.6596C48.2811 39.0353 48.6024 39.7164 48.0688 39.9123C47.9869 40.1799 47.7825 40.2192 47.5275 40.1755C47.1927 40.0757 47.4568 39.3852 47.3521 39.0327C47.3089 38.6017 47.342 38.0167 46.9294 37.781C46.6315 37.2568 45.8456 37.5609 45.4461 37.2617C45.4166 36.8519 45.3344 36.3916 45.4629 36.0188C45.7093 35.9571 45.9643 35.946 46.2207 35.9471ZM41.3419 38.7736C42.8983 38.7963 44.5062 38.7364 46.0268 38.8473C46.0829 39.9234 46.0919 40.9875 46.04 42.0605C42.2477 42.211 38.4429 42.1106 34.6444 42.1378C32.2535 42.1243 29.8607 42.1383 27.4741 42.0738C27.3975 40.9862 27.4752 39.9021 27.471 38.8034C32.0946 38.7935 36.7183 38.7759 41.3419 38.7736ZM22.457 41.8355C23.6706 41.8464 24.8825 41.819 26.0944 41.9255C26.1348 42.2239 26.1269 42.5687 26.411 42.7427C26.552 43.2177 26.8877 43.5416 27.4305 43.4042C28.6436 43.4689 29.9026 43.3799 31.084 43.5681C31.1258 43.9319 31.4035 44.5234 30.8779 44.6194C29.7778 44.872 28.619 44.7021 27.4976 44.7618C24.7498 44.7272 21.9957 44.8456 19.255 44.6795C18.6382 44.6231 18.9029 43.9085 18.838 43.4742C18.8354 42.9538 18.8038 42.4576 18.8652 41.9384C20.0413 41.8337 21.2633 41.8498 22.457 41.8355ZM22.3804 45.8734C24.2187 45.8726 26.0574 45.8757 27.8945 45.8741C30.1598 45.9091 32.4393 45.814 34.6929 45.9697C34.9294 46.3024 35.4947 45.9498 35.6149 46.3903C36.0471 46.698 35.7912 47.3162 35.8681 47.7558C35.8576 48.0684 35.8892 48.3932 35.8209 48.7025C28.7249 48.8139 21.6208 48.8052 14.5244 48.7499C14.163 48.8428 14.108 48.667 14.0639 48.3725C13.7086 47.8485 14.2101 47.2942 14.1455 46.7352C14.1912 46.227 14.7103 46.1366 15.1149 46.0999C15.6105 45.7613 16.2961 45.9839 16.8684 45.897C18.7041 45.8791 20.542 45.8742 22.3804 45.8734Z" />
<path d="M11.0298 3.07346C10.981 3.07409 10.931 3.07772 10.8799 3.08448H10.8748L10.8102 3.0852C10.3788 3.05709 9.98096 3.23318 9.64952 3.47244C9.25083 3.49066 9.28809 3.97733 9.0457 4.19112C8.78952 4.88178 8.79932 5.7464 9.3205 6.31272C9.47272 6.70324 9.95918 6.6737 10.1724 7.00122C10.6391 7.15657 11.2183 7.18639 11.6738 6.98992C11.8083 6.63438 12.2618 6.56563 12.4372 6.20958C12.989 5.72583 13.0753 4.82606 12.7072 4.21373C12.2475 3.71659 11.7627 3.06399 11.0298 3.07346ZM15.9941 3.08977C15.6548 3.09341 15.3539 3.25971 15.1061 3.47515C14.7828 3.54777 14.7897 3.94908 14.542 4.13333C14.3654 4.70708 14.3711 5.37618 14.5337 5.95222C14.826 6.21065 14.9078 6.75253 15.3962 6.77262C15.5301 6.95135 15.727 7.14495 16.0047 7.10279C16.4367 7.09031 17.102 7.23911 17.2913 6.72899C17.6993 6.63301 17.9362 6.20099 18.1167 5.90144C18.6176 5.65871 18.4126 4.95584 18.4014 4.50841C18.3333 4.22566 17.9807 4.22646 17.9396 3.91246C17.7626 3.54884 17.3456 3.46476 17.1297 3.1746C16.8186 3.05787 16.4667 3.11094 16.1418 3.0985C16.0918 3.09204 16.0426 3.08925 15.9941 3.08977ZM16.6029 4.38052C16.8264 4.39847 16.8418 4.75103 17.1013 4.77491C17.2926 5.36849 16.6349 6.01574 16.035 5.79172C15.5748 5.66773 15.7636 5.01739 15.7402 4.67106C15.6748 4.24658 16.2549 4.44935 16.4931 4.39526C16.5348 4.38223 16.571 4.37796 16.6029 4.38052ZM11.0647 4.38396C11.2393 4.39245 11.3731 4.46647 11.451 4.65904C11.7352 4.76145 11.6172 5.20128 11.5703 5.40863C11.2713 5.49151 11.2927 5.95207 10.9141 5.81232C10.4233 5.90867 10.0519 5.4237 10.2164 4.9626C10.2547 4.74068 10.1823 4.31705 10.5556 4.40956C10.659 4.40006 10.79 4.39513 10.8772 4.39526C10.9438 4.38549 11.0065 4.38112 11.0647 4.38396ZM6.30169 12.7393C6.27513 12.7391 6.24859 12.7408 6.22258 12.7441C5.86978 12.7295 5.50476 12.9101 5.3587 13.2175C5.06692 13.2911 5.05753 13.6675 4.74916 13.7248C4.6491 13.9658 4.41643 14.0071 4.2861 14.2289C4.21019 14.4784 3.84651 14.5063 3.81518 14.8024C3.3013 14.9396 3.41196 15.713 3.69358 16.0409C4.47003 16.8708 5.2127 17.7887 6.18081 18.3987C6.62669 18.6098 6.85865 18.0312 6.74429 17.6761C6.57162 16.9965 5.86693 16.5954 5.4441 16.0691C5.04877 15.7953 5.05794 15.2339 5.45097 14.962C5.90162 14.371 6.87074 13.9008 6.71311 13.0307C6.67605 12.8289 6.48761 12.7403 6.30169 12.7393ZM11.6584 12.7626C11.1292 12.7425 11.1704 13.4017 11.4759 13.6604C11.9411 14.3098 12.6301 14.8207 13.0583 15.469C12.7886 15.5694 12.9726 15.97 12.6472 15.9755C12.3662 16.3072 12.0956 16.6898 11.6949 16.8975C11.683 17.2079 11.2496 17.1756 11.2597 17.5149C11.1418 17.9056 11.3229 18.6715 11.8672 18.3633C12.7988 17.6833 13.5914 16.8104 14.3456 15.9419C14.5862 15.5982 14.6198 14.9074 14.1496 14.7772C14.0653 14.4549 13.6763 14.4145 13.5973 14.089C13.3867 13.9934 13.3033 13.8559 13.1712 13.6695C12.8866 13.6186 12.8755 13.2488 12.5831 13.1989C12.4551 12.8317 11.9917 12.7658 11.6584 12.7626ZM10.0714 12.7743C10.0542 12.7746 10.0365 12.7757 10.0183 12.7775C9.5679 12.7433 9.20903 13.1103 9.25756 13.553C8.92897 13.7433 8.88416 14.1299 8.88219 14.4802C8.69595 14.8014 8.46653 15.1256 8.51426 15.5291C7.91093 15.6972 8.35862 16.4775 7.92074 16.8028C7.75952 17.2644 7.6492 17.8638 7.8804 18.3137C8.17561 18.586 8.71394 18.4099 8.74558 17.9978C9.05621 17.7288 9.07174 17.3085 9.12652 16.9386C9.65492 16.8113 9.26731 16.1088 9.6807 15.8518C9.95219 15.5663 9.64228 15.0024 10.0678 14.8789C10.2775 14.5593 10.1672 14.1139 10.4575 13.8285C10.6762 13.4592 10.6043 12.7659 10.0714 12.7743ZM19.5537 14.7849C19.5153 14.7861 19.4736 14.7912 19.4288 14.8009C18.4441 14.85 17.4114 14.7034 16.453 14.8739C16.1894 15.4641 16.6947 16.2109 17.366 16.0884C18.1024 16.0398 18.9201 16.251 19.6026 15.9155C19.9935 15.6603 20.1297 14.7677 19.5537 14.7849ZM20.4253 17.9053C19.1456 17.9369 17.8452 17.8787 16.5792 17.9761C16.3906 18.2375 16.1768 19.1516 16.7027 19.1879C18.6672 19.1626 20.653 19.2381 22.6045 19.1503C22.9318 18.801 22.7432 17.9606 22.144 17.9682C21.5759 17.8854 20.9975 17.912 20.4253 17.9053Z" />
<path d="M22.0514 14.7999L21.9654 14.8373L21.8844 14.8725C21.7669 15.2474 21.7217 16.1153 22.3425 16.0455C27.4342 16.114 32.5268 16.0834 37.6189 16.098C37.9834 15.9616 38.5742 15.2606 38.0172 14.9722C36.3222 14.7602 34.5952 14.8868 32.8882 14.8345C29.2759 14.8199 25.6636 14.8116 22.0514 14.7999ZM26.1694 17.8851C25.8368 17.8842 25.4923 17.9279 25.1953 17.8914C24.8032 17.8828 24.1039 17.8313 24.139 18.4135C24.0541 18.7865 24.2509 19.2419 24.6982 19.175C25.4819 19.1353 26.337 19.3351 27.0742 19.0195C27.454 18.8282 27.4241 18.3487 27.0725 18.1467C26.8228 17.9316 26.502 17.886 26.1694 17.8851ZM29.8524 17.889C29.4915 17.8926 29.1375 17.9302 28.8079 18.0726C28.3883 18.3423 28.2612 19.3435 28.9795 19.1879C31.1184 19.1459 33.2676 19.2736 35.4006 19.1145C35.805 19.0553 36.1433 18.4484 35.6663 18.2356C35.4816 17.7413 34.7769 17.9843 34.3691 17.9018C33.3264 17.8867 32.2834 17.8919 31.2407 17.8915C30.7917 17.9354 30.3164 17.8842 29.8524 17.889ZM9.46443 21.4435C9.44638 21.4439 9.4276 21.4455 9.40807 21.4481C8.55757 21.4558 7.70711 21.4633 6.85661 21.471C5.89387 21.5293 4.88793 21.3902 3.95181 21.5704C3.89225 21.9417 3.5968 22.8123 4.2495 22.7458C6.05803 22.7205 7.88771 22.7962 9.68316 22.7084C9.88469 22.4314 10.0241 21.4295 9.46443 21.4435ZM20.7958 21.4448C20.7778 21.4451 20.7592 21.4465 20.7397 21.4489C18.8496 21.4493 16.9595 21.4479 15.0693 21.4499C13.9735 21.504 12.8435 21.3566 11.7663 21.5757C11.6681 21.7695 11.4751 21.8718 11.3686 22.0622C11.3271 22.345 11.6899 22.345 11.7305 22.5939C12.5657 22.8525 13.4894 22.6794 14.3561 22.7426C16.5725 22.7248 18.8095 22.7942 21.0128 22.7084C21.2141 22.4317 21.3532 21.4352 20.7958 21.4448ZM6.77064 24.5187C6.71993 24.5158 6.66346 24.5221 6.60112 24.5388C5.70936 24.585 4.77195 24.4449 3.90632 24.6118C3.84423 24.9562 3.68718 25.7531 4.2332 25.7964C5.09403 25.7971 6.023 25.9715 6.84331 25.6552C7.21831 25.4124 7.26084 24.5461 6.77064 24.5187Z" />
<path d="M35.6639 23.7701C35.0629 23.7634 34.7516 24.6633 35.2967 24.9994C35.8743 25.1426 36.5351 25.1284 37.105 25.0139C37.3514 24.4852 36.9977 23.7817 36.3736 23.808C36.1907 23.7876 36.0064 23.79 35.8227 23.7922C35.7679 23.7777 35.7149 23.7706 35.6639 23.7701ZM31.2705 23.7741C30.6054 23.8243 29.8789 23.7076 29.2531 23.9699C29.07 24.1269 28.7846 24.2572 28.8458 24.5787C28.7163 25.3776 29.7291 25.0037 30.1966 25.0868C31.2511 25.0453 32.3378 25.1696 33.3748 24.9853C33.7321 24.7808 33.6228 24.2544 33.3182 24.0872C33.0376 23.6641 32.3838 23.8671 31.9494 23.7816C31.7231 23.7766 31.4969 23.7735 31.2705 23.7741ZM42.5804 23.7881C42.0972 23.788 41.6131 23.8011 41.1326 23.7902C40.3511 23.863 39.4591 23.6401 38.7532 24.0532C38.4604 24.3806 38.4686 25.2599 39.0917 25.0868C40.8654 25.0614 42.6603 25.1371 44.4209 25.0492C44.7153 24.7248 44.6064 23.8867 44.024 23.865C43.5463 23.8015 43.0637 23.7882 42.5804 23.7881ZM23.3163 24.5292C22.9463 24.5345 22.5665 24.5795 22.217 24.539C21.8614 24.575 21.464 24.459 21.1346 24.6119C21.0703 24.9582 20.9162 25.7654 21.472 25.7967C22.3776 25.803 23.3331 25.9621 24.2101 25.7027C24.5899 25.5255 24.7488 25.0199 24.3576 24.758C24.0467 24.5585 23.6863 24.524 23.3163 24.5292ZM10.6755 24.5325C10.0038 24.5341 9.33396 24.5448 8.66888 24.5764L8.58791 24.6119C8.51395 25.0294 8.31391 25.9867 9.03552 25.8359C11.1744 25.7926 13.3252 25.9248 15.4575 25.7575C15.719 25.739 15.661 25.3665 15.9613 25.4233C16.4359 25.0873 15.7513 25.0354 15.6772 24.7573C15.2306 24.4067 14.5648 24.6245 14.0362 24.5451C12.9195 24.5525 11.7949 24.5299 10.6755 24.5325ZM18.8501 24.5342C18.5263 24.5311 18.1857 24.5744 17.908 24.5395C17.7865 24.5202 17.683 24.5543 17.5772 24.6113C17.5023 25.0286 17.3026 25.9868 18.0243 25.8359C18.5327 25.746 19.2392 26.0289 19.6289 25.6014C19.6979 25.4207 20.0349 25.3035 19.8469 25.0415C19.655 24.619 19.2664 24.5382 18.8501 24.5342ZM20.1454 27.623C19.3361 27.6255 18.5287 27.6386 17.726 27.6662L17.6451 27.7015C17.4182 27.8936 16.9527 28.3775 17.4353 28.5696C17.5992 28.6566 17.6661 28.9135 17.9223 28.872C20.0717 28.9804 22.2271 28.9002 24.3788 28.9258C24.861 28.7238 24.8759 27.628 24.1935 27.6804C22.8482 27.6439 21.4943 27.6188 20.1454 27.623ZM14.7879 27.6274C14.4211 27.6298 14.0428 27.676 13.7027 27.6293C13.1743 27.6286 12.6459 27.6288 12.1176 27.6299C11.4233 27.7123 10.6137 27.478 9.98509 27.8479C9.6977 28.0369 9.65194 28.5728 10.0406 28.6481C10.3512 29.0822 11.0272 28.8347 11.4824 28.9208C12.8195 28.8799 14.1792 29.0294 15.5034 28.8294C15.8862 28.6736 16.3561 28.1763 15.8044 27.8892C15.5101 27.6667 15.1547 27.6251 14.7879 27.6274ZM5.92702 27.6336C5.30292 27.7106 4.58769 27.5034 4.01442 27.8034C3.54692 28.2639 4.1925 29.0116 4.76044 28.8914C5.93351 28.8825 7.13617 29.0292 8.29308 28.8136C8.83246 28.6329 8.83967 27.682 8.19567 27.6758C7.44095 27.6262 6.683 27.6352 5.92702 27.6336Z" />
<path d="M30.6284 31.9296C30.0785 31.9306 29.5305 31.9406 28.9873 31.9734L28.9062 32.0088C28.5921 32.759 29.5233 33.2828 30.1676 33.2065C31.1152 33.1628 32.1226 33.3813 33.0336 33.0636C33.4661 32.9095 33.8974 32.2144 33.3801 31.9358C32.4666 31.9514 31.5449 31.928 30.6284 31.9296Z" />
<path d="M44.3333 31.9332L41.5944 31.958C40.6317 32.0163 39.6258 31.8771 38.6896 32.0573C38.4675 32.415 38.631 32.8638 39.0172 32.9972C39.4464 33.3656 40.1172 33.1527 40.6397 33.2288C41.7577 33.1807 42.9079 33.3483 44.0077 33.1218C44.4315 32.9401 44.8401 32.2041 44.3333 31.9332ZM36.7793 31.9357C36.7461 31.9349 36.7107 31.9378 36.6732 31.9448C36.577 31.9419 36.4808 31.9467 36.3847 31.9474C35.9483 32.0118 35.0507 31.7905 35.0385 32.4722C35.0332 32.8518 35.4611 32.97 35.6964 33.1749C36.0852 33.3008 36.5781 33.2533 36.8151 32.8971C37.2949 32.7812 37.2775 31.9469 36.7793 31.9357ZM30.2695 39.7148C30.0972 39.7183 29.9489 39.7541 29.8777 39.8814C29.5765 39.797 29.2791 39.7326 29.0172 39.9877C28.5503 40.4699 29.1716 41.2027 29.7547 41.0781C30.8856 41.0674 32.0428 41.1959 33.1593 41.0018C33.6743 40.8248 33.6922 40.075 33.1902 39.8746C33.0645 39.814 32.9225 39.7859 32.7832 39.7976C32.7163 39.8246 32.6485 39.8472 32.5802 39.8678C32.4573 39.6296 31.9098 39.7623 31.6465 39.7211C31.4198 39.7182 31.1932 39.7185 30.9665 39.7195C30.7834 39.7635 30.5048 39.71 30.2695 39.7148ZM36.7057 39.7802C36.4443 39.7739 36.1354 39.846 35.9147 39.8022C35.4326 39.6944 34.8974 40.0482 35.0171 40.5734C35.1316 41.2925 36.0267 41.0578 36.5319 41.0979C37.2766 41.314 37.1942 40.5174 37.1654 40.0282C37.0835 39.8373 36.9089 39.785 36.7057 39.7802ZM40.7524 39.7947C40.0738 39.7956 39.3971 39.8056 38.7251 39.8385L38.6441 39.874C38.576 40.2212 38.4259 41.0533 39.0005 41.0536C40.804 41.1046 42.6296 41.1354 44.421 41.0605C44.6288 40.7749 44.7703 39.7223 44.1479 39.801C43.0198 39.8169 41.8835 39.7933 40.7524 39.7947Z" />
</svg>
